<svg xmlns="http://www.w3.org/2000/svg" width="1024" height="1024" viewBox="0 0 1024 1024"><path d="M 249 507 L 256 455 L 268 415 L 303 353 L 342 311 L 363 295 L 431 261 L 499 247 L 539 248 L 586 258 L 652 287 L 713 340 L 739 376 L 755 408 L 775 479 L 775 542 L 755 615 L 720 672 L 668 725 L 592 762 L 530 776 L 465 771 L 391 743 L 364 727 L 314 682 L 284 641 L 269 611 L 254 562 L 250 492 L 263 429 L 286 378 L 310 344 L 346 308 L 382 283 L 454 254 L 489 248 L 536 248 L 602 263 L 653 288 L 704 330 L 750 397 L 772 462 L 777 519 L 771 565 L 759 604 L 728 661 L 694 700 L 654 730 L 641 733 L 600 759 L 545 774 L 488 775 L 444 765 L 373 737 L 309 676 L 273 620 L 252 550 L 251 485 L 256 457 L 251 494 L 254 464 L 273 403 L 299 358 L 349 306 L 382 284 L 353 303 L 359 299 L 311 344 L 287 378 L 303 354 L 454 255 L 485 249 L 542 249 L 606 265 L 651 287 L 694 320 L 738 376 L 716 345 L 671 361 L 618 333 L 549 347 L 531 413 L 562 475 L 541 500 L 501 523 L 437 548 L 409 568 L 385 593 L 369 619 L 354 669 L 354 713 L 376 750 L 345 711 L 322 691 L 286 643 L 327 696 L 362 724 L 353 681 L 355 664 L 362 636 L 378 603 L 423 557 L 474 531 L 517 519 L 556 485 L 566 464 L 565 450 L 528 405 L 545 379 L 562 339 L 662 336 L 678 307 L 652 288 L 631 310 L 617 334 L 569 346 L 531 400 L 537 427 L 563 473 L 524 523 L 514 520 L 471 532 L 436 549 L 410 567 L 382 598 L 357 655 L 355 704 L 339 706 L 293 654 L 299 662 L 356 660 L 356 704 L 353 682 L 355 701 L 384 596 L 432 552 L 515 520 L 559 479 L 566 455 L 558 442 L 542 435 L 532 399 L 568 345 L 609 335 L 661 334 L 666 354 L 687 390 L 698 422 L 702 495 L 692 550 L 654 696 L 642 722 L 607 756 L 681 688 L 724 666 L 756 611 L 775 541 L 777 501 L 772 464 L 772 557 L 694 541 L 703 479 L 698 424 L 684 384 L 643 308 L 637 305 L 622 323 L 563 353 L 533 398 L 547 438 L 539 391 L 537 394 L 549 334 L 631 338 L 650 346 L 679 376 L 699 428 L 703 484 L 696 532 L 672 614 L 657 688 L 644 718 L 655 729 L 709 685 L 742 639 L 703 691 L 654 695 L 656 728 L 681 694 L 681 663 L 673 624 L 700 504 L 698 520 L 643 576 L 664 606 L 680 694 L 680 660 L 680 666 L 663 604 L 647 580 L 617 553 L 592 539 L 529 523 L 585 536 L 612 550 L 649 583 L 662 603 L 649 584 L 610 549 L 659 598 L 553 527 L 533 505 L 530 524 L 552 527 L 531 524 L 547 526 L 540 524 L 700 434 L 660 332 L 645 311 L 629 314 L 634 339 L 652 348 L 666 297 L 655 290 L 647 345 L 651 347 L 657 327 L 651 318 L 637 340 L 656 326 L 652 320 L 723 354 L 564 252 L 463 253 L 474 251 L 252 545 L 254 563 L 253 552 L 463 770 L 482 774 L 558 771 L 474 772" stroke="black" fill="none" stroke-width="1"/></svg>