<svg xmlns="http://www.w3.org/2000/svg" width="1024" height="1024" viewBox="0 0 1024 1024"><path d="M 539 323 L 542 326 L 545 329 L 547 332 L 549 334 L 550 334 L 553 335 L 556 336 L 559 337 L 562 339 L 565 341 L 568 344 L 570 345 L 573 345 L 576 344 L 579 343 L 582 342 L 585 341 L 588 340 L 591 339 L 594 338 L 597 337 L 600 337 L 603 337 L 606 336 L 609 336 L 612 336 L 615 336 L 618 335 L 620 332 L 620 329 L 621 326 L 623 323 L 625 320 L 627 317 L 630 314 L 632 311 L 634 308 L 637 306 L 640 306 L 643 308 L 646 311 L 648 314 L 650 317 L 653 320 L 655 323 L 657 326 L 659 329 L 660 332 L 662 335 L 664 338 L 665 341 L 666 344 L 667 347 L 668 350 L 668 353 L 667 355 L 666 355 L 663 354 L 660 353 L 657 351 L 654 349 L 651 347 L 648 346 L 645 344 L 642 342 L 639 341 L 636 340 L 633 339 L 630 338 L 627 337 L 624 337 L 621 337 L 619 334 L 619 335 L 622 337 L 625 337 L 628 338 L 631 338 L 634 339 L 637 340 L 640 341 L 643 343 L 646 344 L 649 346 L 652 348 L 655 350 L 658 352 L 661 353 L 664 354 L 667 355 L 668 356 L 670 359 L 672 362 L 674 365 L 675 368 L 677 371 L 678 374 L 680 377 L 682 380 L 684 383 L 685 386 L 687 389 L 688 392 L 689 395 L 691 398 L 692 401 L 693 404 L 694 407 L 695 410 L 696 413 L 696 416 L 697 419 L 698 422 L 699 425 L 699 428 L 700 431 L 701 434 L 701 437 L 701 440 L 702 443 L 702 446 L 703 449 L 703 452 L 703 455 L 703 458 L 703 461 L 704 464 L 704 467 L 704 470 L 704 473 L 704 476 L 704 479 L 703 482 L 703 485 L 703 488 L 703 491 L 702 494 L 702 497 L 702 500 L 701 503 L 701 506 L 700 509 L 700 512 L 699 515 L 699 518 L 698 521 L 698 524 L 697 527 L 697 530 L 696 533 L 695 536 L 695 539 L 694 542 L 694 545 L 693 548 L 692 551 L 692 554 L 691 557 L 690 560 L 689 563 L 689 566 L 688 569 L 687 572 L 686 575 L 686 578 L 685 581 L 684 584 L 683 587 L 683 590 L 682 593 L 681 596 L 680 599 L 680 602 L 679 605 L 678 608 L 677 611 L 675 614 L 672 615 L 669 613 L 666 610 L 665 607 L 663 604 L 661 601 L 659 598 L 657 595 L 656 592 L 653 589 L 651 586 L 649 583 L 646 580 L 644 577 L 641 574 L 638 571 L 635 568 L 632 566 L 629 563 L 626 561 L 623 558 L 620 556 L 617 554 L 614 552 L 611 550 L 608 548 L 605 546 L 602 545 L 599 543 L 596 542 L 593 540 L 590 539 L 587 538 L 584 536 L 581 535 L 578 534 L 575 533 L 572 532 L 569 531 L 566 530 L 563 529 L 560 529 L 557 528 L 554 527 L 551 527 L 548 526 L 545 526 L 542 526 L 539 525 L 536 525 L 533 525 L 530 525 L 527 524 L 524 524 L 521 524 L 518 524 L 515 522 L 516 519 L 518 516 L 520 513 L 523 512 L 526 510 L 529 509 L 532 507 L 535 505 L 538 503 L 541 500 L 544 498 L 547 495 L 550 493 L 552 490 L 555 487 L 557 484 L 559 481 L 561 478 L 562 475 L 564 472 L 565 469 L 566 466 L 566 463 L 567 460 L 567 457 L 566 454 L 566 451 L 564 448 L 561 445 L 558 443 L 555 441 L 552 440 L 549 439 L 546 438 L 543 436 L 541 433 L 539 430 L 538 427 L 536 424 L 535 421 L 534 418 L 532 415 L 531 412 L 530 409 L 529 406 L 530 403 L 532 400 L 535 397 L 538 394 L 540 391 L 542 388 L 544 385 L 545 382 L 546 379 L 547 376 L 548 373 L 549 370 L 551 367 L 551 364 L 552 361 L 552 358 L 551 355 L 550 352 L 550 349 L 549 346 L 549 343 L 549 340 L 548 337 L 548 334 L 548 335 L 548 338 L 549 341 L 549 344 L 549 347 L 550 350 L 551 353 L 551 356 L 553 359 L 556 357 L 559 356 L 562 354 L 565 352 L 567 349 L 569 346 L 567 349 L 565 352 L 562 354 L 559 356 L 556 357 L 553 359 L 552 362 L 551 365 L 550 368 L 549 371 L 548 374 L 547 377 L 546 380 L 544 383 L 543 386 L 541 389 L 540 392 L 537 395 L 534 398 L 531 401 L 529 404 L 529 407 L 530 410 L 532 413 L 533 416 L 534 419 L 536 422 L 537 425 L 538 428 L 540 431 L 541 434 L 544 437 L 547 438 L 550 439 L 553 440 L 556 442 L 559 443 L 562 446 L 565 449 L 566 452 L 567 455 L 567 458 L 567 461 L 566 464 L 566 467 L 565 470 L 563 473 L 562 476 L 560 479 L 558 482 L 556 485 L 554 488 L 551 491 L 549 494 L 546 496 L 543 499 L 540 501 L 537 503 L 534 506 L 531 508 L 528 509 L 525 511 L 522 512 L 519 514 L 517 517 L 516 520 L 513 522 L 510 522 L 507 523 L 504 523 L 501 524 L 498 525 L 495 526 L 492 527 L 489 528 L 486 528 L 483 529 L 480 530 L 477 531 L 474 532 L 471 533 L 468 534 L 465 535 L 462 537 L 459 538 L 456 539 L 453 541 L 450 542 L 447 544 L 444 545 L 441 547 L 438 549 L 435 550 L 432 552 L 429 554 L 426 556 L 423 558 L 420 560 L 417 563 L 414 565 L 411 568 L 408 570 L 405 573 L 402 576 L 399 579 L 396 582 L 394 585 L 391 588 L 388 591 L 386 594 L 383 597 L 381 600 L 379 603 L 377 606 L 376 609 L 374 612 L 372 615 L 371 618 L 369 621 L 368 624 L 367 627 L 365 630 L 364 633 L 363 636 L 362 639 L 361 642 L 360 645 L 359 648 L 358 651 L 358 654 L 357 657 L 356 660 L 356 663 L 355 666 L 355 669 L 355 672 L 355 675 L 355 678 L 355 681 L 355 684 L 355 687 L 355 690 L 355 693 L 355 696 L 355 699 L 356 702 L 356 705 L 357 708 L 357 711 L 357 714 L 356 716 L 355 716 L 352 715 L 349 714 L 346 712 L 343 710 L 340 707 L 337 705 L 334 702 L 331 699 L 328 696 L 325 693 L 322 690 L 319 687 L 316 684 L 314 681 L 311 678 L 309 675 L 306 672 L 304 669 L 302 666 L 299 663 L 297 660 L 295 657 L 293 654 L 291 651 L 289 648 L 287 645 L 285 642 L 284 639 L 282 636 L 280 633 L 279 630 L 277 627 L 276 624 L 274 621 L 273 618 L 272 615 L 270 612 L 269 609 L 268 606 L 267 603 L 265 600 L 264 597 L 263 594 L 262 591 L 261 588 L 260 585 L 260 582 L 259 579 L 258 576 L 257 573 L 257 570 L 256 567 L 255 564 L 255 561 L 254 558 L 254 555 L 253 552 L 253 549 L 252 546 L 252 543 L 252 540 L 251 537 L 251 534 L 251 531 L 251 528 L 251 525 L 251 522 L 251 519 L 251 516 L 251 513 L 251 510 L 251 507 L 251 504 L 251 501 L 251 498 L 251 495 L 251 492 L 252 489 L 252 486 L 252 483 L 252 480 L 253 477 L 253 474 L 254 471 L 254 468 L 255 465 L 255 462 L 256 459 L 257 456 L 257 453 L 258 450 L 259 447 L 260 444 L 261 441 L 261 438 L 262 435 L 263 432 L 264 429 L 265 426 L 266 423 L 267 420 L 268 417 L 270 414 L 271 411 L 272 408 L 273 405 L 275 402 L 276 399 L 277 396 L 279 393 L 280 390 L 282 387 L 284 384 L 286 381 L 287 378 L 289 375 L 291 372 L 293 369 L 295 366 L 297 363 L 299 360 L 301 357 L 304 354 L 306 351 L 308 348 L 310 345 L 313 342 L 315 339 L 318 336 L 321 333 L 324 330 L 326 327 L 329 324 L 332 321 L 335 319 L 338 316 L 341 313 L 344 311 L 347 308 L 350 306 L 353 304 L 356 301 L 359 299 L 362 297 L 365 295 L 368 293 L 371 291 L 374 289 L 377 287 L 380 285 L 383 284 L 386 282 L 389 280 L 392 279 L 395 277 L 398 276 L 401 274 L 404 273 L 407 271 L 410 270 L 413 269 L 416 268 L 419 266 L 422 265 L 425 264 L 428 263 L 431 262 L 434 261 L 437 260 L 440 259 L 443 258 L 446 257 L 449 256 L 452 256 L 455 255 L 458 254 L 461 254 L 464 253 L 467 252 L 470 252 L 473 251 L 476 251 L 479 251 L 482 250 L 485 250 L 488 250 L 491 249 L 494 249 L 497 249 L 500 249 L 503 249 L 506 248 L 509 248 L 512 248 L 515 248 L 518 248 L 521 248 L 524 248 L 527 249 L 530 249 L 533 249 L 536 249 L 539 250 L 542 250 L 545 250 L 548 251 L 551 251 L 554 251 L 557 252 L 560 252 L 563 253 L 566 253 L 569 254 L 572 255 L 575 256 L 578 256 L 581 257 L 584 258 L 587 259 L 590 260 L 593 261 L 596 262 L 599 263 L 602 264 L 605 265 L 608 266 L 611 267 L 614 268 L 617 270 L 620 271 L 623 272 L 626 274 L 629 275 L 632 277 L 635 278 L 638 280 L 641 282 L 644 283 L 647 285 L 650 287 L 653 288 L 656 290 L 659 292 L 662 295 L 665 297 L 668 299 L 671 301 L 674 303 L 677 306 L 680 308 L 683 311 L 686 313 L 689 316 L 692 319 L 695 322 L 698 325 L 701 328 L 704 331 L 707 334 L 710 337 L 712 340 L 715 343 L 717 346 L 720 349 L 722 352 L 725 355 L 727 358 L 729 361 L 731 364 L 733 367 L 735 370 L 737 373 L 739 376 L 740 379 L 742 382 L 744 385 L 746 388 L 747 391 L 749 394 L 750 397 L 752 400 L 753 403 L 754 406 L 756 409 L 757 412 L 758 415 L 759 418 L 761 421 L 762 424 L 763 427 L 764 430 L 765 433 L 766 436 L 766 439 L 767 442 L 768 445 L 769 448 L 770 451 L 770 454 L 771 457 L 772 460 L 772 463 L 773 466 L 773 469 L 774 472 L 774 475 L 775 478 L 775 481 L 776 484 L 776 487 L 776 490 L 777 493 L 777 496 L 777 499 L 777 502 L 777 505 L 777 508 L 777 511 L 777 514 L 777 517 L 777 520 L 777 523 L 777 526 L 777 529 L 776 532 L 776 535 L 776 538 L 775 541 L 775 544 L 774 547 L 774 550 L 774 553 L 773 556 L 773 559 L 772 562 L 772 565 L 771 568 L 770 571 L 769 574 L 769 577 L 768 580 L 767 583 L 766 586 L 765 589 L 764 592 L 763 595 L 762 598 L 761 601 L 760 604 L 759 607 L 758 610 L 756 613 L 755 616 L 754 619 L 752 622 L 751 625 L 749 628 L 748 631 L 746 634 L 744 637 L 743 640 L 741 643 L 739 646 L 737 649 L 735 652 L 733 655 L 731 658 L 729 661 L 726 664 L 724 667 L 722 670 L 719 673 L 717 676 L 714 679 L 711 682 L 709 685 L 706 688 L 703 691 L 700 694 L 697 697 L 694 700 L 691 703 L 688 704 L 685 705 L 682 706 L 681 703 L 681 700 L 681 697 L 681 694 L 681 691 L 682 688 L 682 685 L 682 682 L 682 679 L 682 676 L 682 673 L 682 670 L 682 667 L 681 664 L 681 661 L 680 658 L 680 655 L 679 652 L 678 649 L 675 646 L 674 643 L 674 640 L 673 637 L 674 634 L 673 631 L 673 628 L 673 625 L 673 622 L 674 619 L 673 616 L 673 615 L 673 616 L 674 619 L 673 622 L 673 625 L 673 628 L 673 631 L 674 634 L 673 637 L 674 640 L 674 643 L 674 646 L 673 646 L 670 648 L 668 651 L 667 654 L 666 657 L 665 660 L 665 663 L 664 666 L 663 669 L 662 672 L 662 675 L 661 678 L 660 681 L 659 684 L 658 687 L 657 690 L 656 693 L 655 696 L 654 699 L 652 702 L 651 705 L 650 708 L 648 711 L 647 714 L 645 717 L 644 720 L 642 723 L 640 726 L 639 729 L 639 732 L 638 735 L 637 738 L 638 738 L 636 738 L 634 741 L 631 744 L 628 746 L 625 748 L 622 750 L 619 751 L 616 753 L 613 754 L 610 756 L 607 757 L 604 758 L 601 759 L 598 761 L 595 762 L 592 763 L 589 764 L 586 765 L 583 766 L 580 767 L 577 767 L 574 768 L 571 769 L 568 770 L 565 771 L 562 771 L 559 772 L 556 772 L 553 773 L 550 773 L 547 774 L 544 774 L 541 775 L 538 775 L 535 776 L 532 776 L 529 776 L 526 776 L 523 776 L 520 777 L 517 777 L 514 777 L 511 777 L 508 777 L 505 776 L 502 776 L 499 776 L 496 776 L 493 776 L 490 776 L 487 775 L 484 775 L 481 774 L 478 774 L 475 773 L 472 773 L 469 772 L 466 771 L 463 771 L 460 770 L 457 769 L 454 768 L 451 768 L 448 767 L 445 766 L 442 765 L 439 764 L 436 763 L 433 762 L 430 761 L 427 760 L 424 759 L 421 758 L 418 756 L 415 755 L 412 754 L 409 752 L 406 751 L 403 750 L 400 748 L 397 747 L 394 745 L 391 743 L 388 741 L 385 740 L 382 738 L 379 736 L 376 736 L 373 735 L 370 734 L 367 731 L 365 728 L 362 725 L 360 722 L 358 719 L 356 716 L 357 717 L 359 720 L 361 723 L 363 726 L 366 729 L 368 732 L 371 735 L 371 736 L 371 739 L 372 742 L 373 745 L 375 748 L 377 751 L 375 748 L 373 745 L 372 742 L 371 739 L 371 736 L 374 735 L 377 736 L 380 737 L 383 738 L 386 740 L 389 742 L 392 744 L 395 746 L 398 747 L 401 749 L 404 750 L 407 752 L 410 753 L 413 754 L 416 756 L 419 757 L 422 758 L 425 759 L 428 760 L 431 762 L 434 763 L 437 764 L 440 764 L 443 765 L 446 766 L 449 767 L 452 768 L 455 769 L 458 769 L 461 770 L 464 771 L 467 772 L 470 772 L 473 773 L 476 773 L 479 774 L 482 774 L 485 775 L 488 775 L 491 776 L 494 776 L 497 776 L 500 776 L 503 776 L 506 777 L 509 777 L 512 777 L 515 777 L 518 777 L 521 777 L 524 776 L 527 776 L 530 776 L 533 776 L 536 776 L 539 775 L 542 775 L 545 774 L 548 774 L 551 773 L 554 773 L 557 772 L 560 772 L 563 771 L 566 770 L 569 770 L 572 769 L 575 768 L 578 767 L 581 766 L 584 765 L 587 764 L 590 764 L 593 762 L 596 761 L 599 760 L 602 759 L 605 758 L 608 757 L 611 755 L 614 754 L 617 752 L 620 751 L 623 749 L 626 748 L 629 746 L 632 743 L 635 740 L 638 738 L 641 737 L 644 736 L 647 736 L 650 734 L 653 731 L 656 729 L 659 727 L 662 726 L 665 725 L 668 724 L 671 723 L 673 720 L 675 717 L 677 714 L 679 711 L 680 708 L 681 705 L 681 707 L 679 710 L 678 713 L 676 716 L 674 719 L 672 722 L 670 724 L 671 725 L 670 728 L 669 731 L 669 730 L 670 727 L 671 724 L 672 721 L 674 718 L 676 715 L 678 712 L 680 709 L 681 706 L 681 703 L 681 700 L 681 697 L 681 694 L 681 691 L 682 688 L 682 685 L 682 682 L 682 679 L 682 676 L 682 673 L 682 670 L 682 667 L 681 664 L 681 661 L 680 658 L 680 655 L 679 652 L 678 649 L 675 646 L 674 645 L 673 642 L 674 639 L 673 636 L 674 633 L 673 630 L 673 627 L 673 624 L 673 621 L 673 618 L 672 615 L 669 613 L 666 610 L 665 607 L 663 604 L 661 601 L 659 598 L 657 595 L 656 592 L 653 589 L 651 586 L 649 583 L 646 580 L 644 577 L 641 574 L 638 571 L 635 568 L 632 566 L 629 563 L 626 561 L 623 558 L 620 556 L 617 554 L 614 552 L 611 550 L 608 548 L 605 546 L 602 545 L 599 543 L 596 542 L 593 540 L 590 539 L 587 538 L 584 536 L 581 535 L 578 534 L 575 533 L 572 532 L 569 531 L 566 530 L 563 529 L 560 529 L 557 528 L 554 527 L 551 527 L 548 526 L 545 526 L 542 526 L 539 525 L 536 525 L 533 525 L 530 525 L 527 524 L 524 524 L 521 524 L 518 524 L 515 522" stroke="black" fill="none" stroke-width="1"/></svg>