<svg xmlns="http://www.w3.org/2000/svg" width="1024" height="1024" viewBox="0 0 1024 1024"><path d="M 192 504 L 198 575 L 215 632 L 246 687 L 302 746 L 328 784 L 368 807 L 436 829 L 478 835 L 546 833 L 622 813 L 683 779 L 738 730 L 784 663 L 810 581 L 815 502 L 809 459 L 796 415 L 758 333 L 712 283 L 674 256 L 577 220 L 480 206 L 404 222 L 337 253 L 288 291 L 234 362 L 209 416 L 193 487 L 196 563 L 215 631 L 228 658 L 265 711 L 288 733 L 324 781 L 351 798 L 404 821 L 487 836 L 574 828 L 624 812 L 684 778 L 723 746 L 755 709 L 783 666 L 810 582 L 814 493 L 796 414 L 751 324 L 726 296 L 683 261 L 612 231 L 547 214 L 472 207 L 389 227 L 345 248 L 282 298 L 253 333 L 226 376 L 212 407 L 198 458 L 194 539 L 194 477 L 216 398 L 215 401 L 374 233 L 460 209 L 494 205 L 546 214 L 492 205 L 489 206 L 570 279 L 581 294 L 658 332 L 704 372 L 733 413 L 769 494 L 770 536 L 765 574 L 752 619 L 721 675 L 677 722 L 613 764 L 550 786 L 478 792 L 407 779 L 337 747 L 382 770 L 447 788 L 510 792 L 570 781 L 627 757 L 668 729 L 708 691 L 738 649 L 762 585 L 771 520 L 759 430 L 745 399 L 718 360 L 669 319 L 632 302 L 598 295 L 585 282 L 588 274 L 601 277 L 624 293 L 649 327 L 674 343 L 721 394 L 768 488 L 769 542 L 767 455 L 741 392 L 694 337 L 630 300 L 600 277 L 580 305 L 562 351 L 543 379 L 538 402 L 545 429 L 560 442 L 598 443 L 630 434 L 557 440 L 548 432 L 539 404 L 543 380 L 559 355 L 583 327 L 599 296 L 616 287 L 635 241 L 618 234 L 684 262 L 718 290 L 761 337 L 714 385 L 752 457 L 766 452 L 794 411 L 784 389 L 722 396 L 672 342 L 617 312 L 601 297 L 581 305 L 568 344 L 602 298 L 668 271 L 693 273 L 716 289 L 746 346 L 710 380 L 715 386 L 735 332 L 696 291 L 667 270 L 583 319 L 570 341 L 603 299 L 624 294 L 636 314 L 672 341 L 720 364 L 744 344 L 754 328 L 710 305 L 670 272 L 658 254 L 707 298 L 743 342 L 702 296 L 669 272 L 710 295 L 707 300 L 581 306 L 540 406 L 542 410 L 578 440 L 604 442 L 625 437 L 568 427 L 560 419 L 567 426 L 755 421 L 793 409 L 765 449 L 757 426 L 806 599 L 782 668 L 730 662 L 685 715 L 643 747 L 691 773 L 722 747 L 752 713 L 721 674 L 726 668 L 600 821 L 533 789 L 515 791 L 519 835 L 451 832 L 395 818 L 362 804 L 368 764 L 341 749 L 386 814 L 393 817 L 419 782 L 264 709" stroke="black" fill="none" stroke-width="1"/></svg>