<svg xmlns="http://www.w3.org/2000/svg" width="1024" height="1024" viewBox="0 0 1024 1024">
<path d="M 258 468 L 268 442 L 281 420 L 296 400 L 332 357 L 371 322 L 410 307 L 450 297 L 485 299 L 516 303 L 540 313 L 554 327 L 566 338 L 580 340 L 595 341 L 609 338 L 621 333 L 632 329 L 637 327 L 639 328 L 641 331 L 643 335 L 651 351 L 659 377 L 678 408 L 700 432 L 720 445 L 735 452 L 740 447 L 738 428 L 729 401 L 709 365 L 683 331 L 655 322 L 625 316 L 600 325 L 576 339 L 565 361 L 556 385 L 551 414 L 551 430 L 552 448 L 557 465 L 563 483 L 557 492 L 549 504 L 531 516 L 508 532 L 484 545 L 456 559 L 427 576 L 403 596 L 382 622 L 368 645 L 365 665 L 364 687 L 364 706 L 376 722 L 389 738 L 408 747 L 434 757 L 474 758 L 511 756 L 556 748 L 590 738 L 621 724 L 643 712 L 661 700 L 665 692 L 670 682 L 667 675 L 666 666 L 668 658 L 671 646 L 669 630 L 663 616 L 655 602 L 646 585 L 657 584 L 669 584 L 669 602 L 617 610 L 564 616 L 555 625 L 546 642 L 495 649" stroke="black" fill="none" stroke-width="1" stroke-linecap="round" stroke-linejoin="round"/>
</svg>