<svg xmlns="http://www.w3.org/2000/svg" width="1024" height="1024" viewBox="0 0 1024 1024"><path d="M 495 253 L 496 252 L 497 252 L 498 252 L 499 252 L 500 252 L 501 252 L 502 252 L 503 252 L 504 252 L 505 252 L 506 252 L 507 252 L 508 252 L 509 252 L 510 252 L 511 252 L 512 252 L 513 252 L 514 252 L 515 252 L 516 252 L 517 252 L 518 252 L 519 252 L 520 252 L 521 252 L 522 252 L 523 252 L 524 252 L 525 252 L 526 252 L 527 252 L 528 252 L 529 253 L 530 253 L 531 253 L 532 253 L 533 253 L 534 253 L 535 253 L 536 253 L 537 253 L 538 253 L 539 253 L 540 253 L 541 254 L 542 254 L 543 254 L 544 254 L 545 254 L 546 254 L 547 254 L 548 255 L 549 255 L 550 255 L 551 255 L 552 255 L 553 255 L 554 255 L 555 256 L 556 256 L 557 256 L 558 256 L 559 256 L 560 256 L 561 257 L 562 257 L 563 257 L 564 257 L 565 257 L 566 258 L 567 258 L 568 258 L 569 258 L 570 259 L 571 259 L 572 259 L 573 259 L 574 260 L 575 260 L 576 260 L 577 261 L 578 261 L 579 261 L 580 261 L 581 262 L 582 262 L 583 262 L 584 262 L 585 263 L 586 263 L 587 263 L 588 264 L 589 264 L 590 264 L 591 265 L 592 265 L 593 265 L 594 265 L 595 266 L 596 266 L 597 266 L 598 267 L 599 267 L 600 267 L 601 268 L 602 268 L 603 269 L 604 269 L 605 269 L 606 270 L 607 270 L 608 271 L 609 271 L 610 271 L 611 272 L 612 272 L 613 273 L 614 273 L 615 274 L 616 274 L 617 274 L 618 275 L 619 275 L 620 276 L 621 276 L 622 277 L 623 277 L 624 278 L 625 278 L 626 279 L 627 279 L 628 279 L 629 280 L 630 281 L 631 281 L 632 282 L 633 282 L 634 283 L 635 283 L 636 284 L 637 284 L 638 285 L 639 285 L 640 286 L 641 286 L 642 287 L 643 287 L 644 288 L 645 289 L 646 289 L 647 290 L 648 290 L 649 291 L 650 292 L 651 292 L 652 293 L 653 294 L 654 294 L 655 295 L 656 296 L 657 296 L 658 297 L 659 298 L 660 299 L 661 299 L 662 300 L 663 301 L 664 301 L 665 302 L 666 303 L 667 304 L 668 305 L 669 305 L 670 306 L 671 307 L 672 308 L 673 308 L 674 309 L 675 310 L 676 311 L 677 312 L 678 313 L 679 313 L 680 314 L 681 315 L 682 316 L 683 317 L 684 318 L 685 319 L 686 320 L 687 321 L 688 321 L 689 322 L 690 323 L 691 324 L 692 325 L 693 326 L 694 327 L 695 328 L 696 329 L 697 330 L 698 331 L 699 332 L 700 333 L 701 334 L 701 335 L 702 336 L 703 337 L 704 338 L 705 339 L 706 340 L 707 341 L 708 342 L 709 343 L 710 344 L 710 345 L 711 346 L 712 347 L 713 348 L 714 349 L 715 350 L 716 351 L 716 352 L 717 353 L 718 354 L 719 355 L 719 356 L 720 357 L 721 358 L 722 359 L 722 360 L 723 361 L 724 362 L 724 363 L 725 364 L 726 365 L 727 366 L 727 367 L 728 368 L 729 369 L 729 370 L 730 371 L 731 372 L 731 373 L 732 374 L 733 375 L 733 376 L 734 377 L 734 378 L 735 379 L 736 380 L 736 381 L 737 382 L 737 383 L 738 384 L 738 385 L 739 386 L 739 387 L 740 388 L 741 389 L 741 390 L 742 391 L 742 392 L 743 393 L 743 394 L 744 395 L 744 396 L 745 397 L 745 398 L 746 399 L 746 400 L 747 401 L 747 402 L 747 403 L 748 404 L 748 405 L 749 406 L 749 407 L 750 408 L 750 409 L 751 410 L 751 411 L 752 412 L 752 413 L 752 414 L 753 415 L 753 416 L 754 417 L 754 418 L 754 419 L 755 420 L 755 421 L 755 422 L 756 423 L 756 424 L 757 425 L 757 426 L 757 427 L 758 428 L 758 429 L 758 430 L 759 431 L 759 432 L 759 433 L 760 434 L 760 435 L 760 436 L 761 437 L 761 438 L 761 439 L 761 440 L 762 441 L 762 442 L 762 443 L 763 444 L 763 445 L 763 446 L 763 447 L 764 448 L 764 449 L 764 450 L 764 451 L 765 452 L 765 453 L 765 454 L 765 455 L 766 456 L 766 457 L 766 458 L 766 459 L 767 460 L 767 461 L 767 462 L 767 463 L 768 464 L 768 465 L 768 466 L 768 467 L 768 468 L 769 469 L 769 470 L 769 471 L 769 472 L 769 473 L 769 474 L 770 475 L 770 476 L 770 477 L 770 478 L 770 479 L 770 480 L 770 481 L 770 482 L 770 483 L 770 484 L 771 485 L 771 486 L 771 487 L 771 488 L 771 489 L 771 490 L 771 491 L 771 492 L 771 493 L 771 494 L 771 495 L 771 496 L 771 497 L 772 498 L 772 499 L 772 500 L 772 501 L 772 502 L 772 503 L 772 504 L 772 505 L 772 506 L 772 507 L 772 508 L 772 509 L 772 510 L 772 511 L 772 512 L 772 513 L 772 514 L 772 515 L 772 516 L 772 517 L 772 518 L 772 519 L 772 520 L 772 521 L 772 522 L 772 523 L 772 524 L 772 525 L 772 526 L 772 527 L 772 528 L 771 529 L 771 530 L 771 531 L 771 532 L 771 533 L 771 534 L 771 535 L 771 536 L 771 537 L 771 538 L 770 539 L 770 540 L 770 541 L 770 542 L 770 543 L 770 544 L 770 545 L 770 546 L 770 547 L 769 548 L 769 549 L 769 550 L 769 551 L 769 552 L 769 553 L 768 554 L 768 555 L 768 556 L 768 557 L 768 558 L 768 559 L 767 560 L 767 561 L 767 562 L 767 563 L 767 564 L 766 565 L 766 566 L 766 567 L 766 568 L 765 569 L 765 570 L 765 571 L 765 572 L 764 573 L 764 574 L 764 575 L 764 576 L 763 577 L 763 578 L 763 579 L 762 580 L 762 581 L 762 582 L 762 583 L 761 584 L 761 585 L 761 586 L 760 587 L 760 588 L 760 589 L 759 590 L 759 591 L 759 592 L 758 593 L 758 594 L 758 595 L 757 596 L 757 597 L 757 598 L 756 599 L 756 600 L 756 601 L 755 602 L 755 603 L 754 604 L 754 605 L 754 606 L 753 607 L 753 608 L 752 609 L 752 610 L 752 611 L 751 612 L 751 613 L 750 614 L 750 615 L 749 616 L 749 617 L 749 618 L 748 619 L 748 620 L 747 621 L 747 622 L 746 623 L 746 624 L 745 625 L 745 626 L 744 627 L 743 628 L 743 629 L 742 630 L 742 631 L 741 632 L 741 633 L 740 634 L 740 635 L 739 636 L 738 637 L 738 638 L 737 639 L 737 640 L 736 641 L 735 642 L 735 643 L 734 644 L 734 645 L 733 646 L 732 647 L 732 648 L 731 649 L 730 650 L 730 651 L 729 652 L 728 653 L 727 654 L 727 655 L 726 656 L 725 657 L 724 658 L 724 659 L 723 660 L 722 661 L 721 662 L 720 663 L 720 664 L 719 665 L 718 666 L 717 667 L 717 668 L 716 669 L 715 670 L 714 671 L 713 672 L 712 673 L 712 674 L 711 675 L 710 676 L 709 677 L 708 678 L 707 679 L 706 680 L 706 681 L 705 682 L 704 683 L 703 684 L 702 685 L 701 686 L 700 687 L 699 688 L 698 689 L 697 690 L 696 691 L 695 692 L 694 693 L 693 694 L 692 695 L 691 696 L 690 697 L 689 698 L 688 699 L 687 700 L 686 700 L 685 701 L 684 700 L 684 699 L 684 698 L 684 697 L 684 696 L 685 695 L 685 694 L 685 693 L 685 692 L 685 691 L 685 690 L 685 689 L 685 688 L 685 687 L 685 686 L 685 685 L 686 684 L 686 683 L 686 682 L 686 681 L 686 680 L 686 679 L 686 678 L 686 677 L 686 676 L 686 675 L 686 674 L 686 673 L 686 672 L 686 671 L 685 670 L 685 669 L 685 668 L 685 667 L 685 666 L 685 665 L 685 664 L 685 663 L 685 662 L 685 661 L 685 660 L 684 659 L 684 658 L 684 657 L 684 656 L 684 655 L 684 654 L 683 653 L 683 652 L 683 651 L 683 650 L 683 649 L 682 648 L 682 647 L 682 646 L 682 645 L 682 644 L 682 643 L 681 642 L 681 641 L 681 640 L 681 639 L 681 638 L 680 637 L 680 636 L 680 635 L 680 634 L 679 633 L 679 632 L 679 631 L 679 630 L 678 629 L 678 628 L 678 627 L 678 626 L 678 625 L 678 624 L 678 623 L 678 622 L 678 621 L 679 620 L 679 619 L 679 618 L 679 617 L 679 616 L 680 615 L 680 614 L 680 613 L 681 612 L 681 611 L 681 610 L 681 609 L 682 608 L 682 607 L 682 606 L 682 605 L 683 604 L 683 603 L 683 602 L 683 601 L 684 600 L 684 599 L 684 598 L 684 597 L 685 596 L 685 595 L 685 594 L 685 593 L 686 592 L 686 591 L 686 590 L 687 589 L 687 588 L 687 587 L 687 586 L 688 585 L 688 584 L 688 583 L 688 582 L 689 581 L 689 580 L 689 579 L 689 578 L 690 577 L 690 576 L 690 575 L 690 574 L 691 573 L 691 572 L 691 571 L 691 570 L 692 569 L 692 568 L 692 567 L 692 566 L 693 565 L 693 564 L 693 563 L 693 562 L 694 561 L 694 560 L 694 559 L 694 558 L 695 557 L 695 556 L 695 555 L 695 554 L 696 553 L 696 552 L 696 551 L 696 550 L 696 549 L 697 548 L 697 547 L 697 546 L 697 545 L 698 544 L 698 543 L 698 542 L 698 541 L 698 540 L 699 539 L 699 538 L 699 537 L 699 536 L 700 535 L 700 534 L 700 533 L 700 532 L 700 531 L 701 530 L 701 529 L 701 528 L 701 527 L 701 526 L 702 525 L 702 524 L 702 523 L 702 522 L 702 521 L 702 520 L 703 519 L 703 518 L 703 517 L 703 516 L 703 515 L 703 514 L 704 513 L 704 512 L 704 511 L 704 510 L 704 509 L 704 508 L 704 507 L 704 506 L 705 505 L 705 504 L 705 503 L 705 502 L 705 501 L 705 500 L 705 499 L 706 498 L 706 497 L 706 496 L 706 495 L 706 494 L 706 493 L 706 492 L 706 491 L 706 490 L 706 489 L 706 488 L 707 487 L 707 486 L 707 485 L 707 484 L 707 483 L 707 482 L 707 481 L 707 480 L 707 479 L 707 478 L 707 477 L 707 476 L 707 475 L 707 474 L 707 473 L 707 472 L 707 471 L 707 470 L 707 469 L 707 468 L 707 467 L 707 466 L 707 465 L 707 464 L 707 463 L 707 462 L 707 461 L 707 460 L 707 459 L 707 458 L 707 457 L 707 456 L 707 455 L 707 454 L 706 453 L 706 452 L 706 451 L 706 450 L 706 449 L 706 448 L 706 447 L 706 446 L 706 445 L 706 444 L 706 443 L 706 442 L 705 441 L 705 440 L 705 439 L 705 438 L 705 437 L 705 436 L 705 435 L 705 434 L 704 433 L 704 432 L 704 431 L 704 430 L 704 429 L 703 428 L 703 427 L 703 426 L 703 425 L 703 424 L 702 423 L 702 422 L 702 421 L 702 420 L 702 419 L 701 418 L 701 417 L 701 416 L 701 415 L 700 414 L 700 413 L 700 412 L 699 411 L 699 410 L 699 409 L 699 408 L 698 407 L 698 406 L 698 405 L 697 404 L 697 403 L 696 402 L 696 401 L 696 400 L 695 399 L 695 398 L 695 397 L 694 396 L 694 395 L 693 394 L 693 393 L 692 392 L 692 391 L 692 390 L 691 389 L 691 388 L 690 387 L 690 386 L 690 385 L 689 384 L 689 383 L 688 382 L 688 381 L 687 380 L 686 379 L 686 378 L 685 377 L 685 376 L 684 375 L 683 374 L 683 373 L 682 372 L 681 371 L 681 370 L 680 369 L 680 368 L 679 367 L 679 366 L 679 365 L 678 364 L 678 363 L 678 362 L 677 361 L 677 360 L 677 359 L 677 358 L 676 357 L 676 356 L 676 355 L 675 354 L 675 353 L 675 352 L 674 351 L 674 350 L 673 349 L 673 348 L 672 347 L 672 346 L 672 345 L 671 344 L 671 343 L 670 342 L 670 341 L 669 340 L 669 339 L 668 338 L 668 337 L 667 336 L 667 335 L 666 334 L 666 333 L 665 332 L 665 331 L 664 330 L 664 329 L 663 328 L 662 327 L 662 326 L 661 325 L 661 324 L 660 323 L 659 322 L 659 321 L 658 320 L 657 319 L 657 318 L 656 317 L 655 316 L 654 315 L 654 314 L 653 313 L 652 312 L 651 311 L 651 310 L 650 309 L 649 308 L 648 307 L 648 306 L 647 305 L 646 304 L 645 303 L 644 302 L 643 301 L 642 300 L 641 299 L 640 298 L 639 298 L 638 297 L 637 297 L 636 297 L 635 298 L 634 298 L 634 299 L 633 300 L 632 301 L 631 302 L 631 303 L 630 304 L 629 305 L 629 306 L 628 307 L 627 308 L 627 309 L 626 310 L 625 311 L 625 312 L 624 313 L 623 314 L 623 315 L 622 316 L 621 317 L 621 318 L 620 319 L 619 320 L 618 321 L 618 322 L 617 323 L 616 324 L 616 325 L 615 326 L 614 327 L 614 328 L 613 329 L 612 330 L 611 331 L 610 332 L 609 331 L 608 331 L 607 331 L 606 331 L 605 332 L 604 332 L 603 332 L 602 332 L 601 332 L 600 332 L 599 332 L 598 332 L 597 332 L 596 332 L 595 333 L 594 333 L 593 333 L 592 333 L 591 334 L 590 334 L 589 334 L 588 334 L 587 335 L 586 335 L 585 335 L 584 336 L 583 336 L 582 336 L 581 337 L 580 337 L 579 337 L 578 338 L 577 338 L 576 339 L 575 339 L 574 340 L 573 340 L 572 340 L 571 339 L 570 339 L 569 338 L 568 337 L 567 337 L 566 336 L 565 335 L 564 335 L 563 334 L 562 333 L 561 332 L 560 332 L 559 331 L 558 330 L 557 330 L 556 329 L 555 328 L 554 327 L 553 327 L 552 326 L 551 325 L 550 325 L 549 324 L 548 323 L 547 323 L 546 322 L 545 321 L 544 321 L 543 320 L 542 319 L 541 319 L 540 319 L 539 318 L 538 318 L 537 319 L 536 319 L 535 320 L 535 321 L 535 322 L 535 323 L 535 324 L 536 325 L 536 326 L 536 327 L 537 328 L 538 329 L 538 330 L 538 331 L 539 332 L 539 333 L 540 334 L 540 335 L 541 336 L 541 337 L 541 338 L 542 339 L 542 340 L 543 341 L 543 342 L 543 343 L 543 344 L 544 345 L 544 346 L 544 347 L 545 348 L 545 349 L 545 350 L 545 351 L 545 352 L 545 353 L 545 354 L 545 355 L 545 356 L 546 357 L 546 358 L 546 359 L 545 360 L 545 361 L 545 362 L 545 363 L 545 364 L 545 365 L 545 366 L 545 367 L 544 368 L 544 369 L 544 370 L 544 371 L 543 372 L 543 373 L 543 374 L 542 375 L 542 376 L 541 377 L 541 378 L 541 379 L 540 380 L 540 381 L 539 382 L 539 383 L 538 384 L 538 385 L 537 386 L 537 387 L 536 388 L 535 389 L 534 390 L 534 391 L 533 392 L 532 393 L 531 394 L 530 395 L 529 396 L 528 397 L 527 398 L 526 399 L 525 400 L 524 401 L 523 402 L 523 403 L 522 404 L 523 405 L 523 406 L 523 407 L 524 408 L 524 409 L 524 410 L 525 411 L 525 412 L 526 413 L 526 414 L 527 415 L 527 416 L 528 417 L 528 418 L 529 419 L 529 420 L 529 421 L 530 422 L 530 423 L 531 424 L 531 425 L 532 426 L 532 427 L 533 428 L 533 429 L 534 430 L 534 431 L 535 432 L 535 433 L 536 434 L 536 435 L 537 436 L 537 437 L 538 438 L 539 439 L 540 440 L 541 441 L 542 441 L 543 441 L 544 442 L 545 442 L 546 442 L 547 442 L 548 443 L 549 443 L 550 443 L 551 444 L 552 444 L 553 445 L 554 445 L 555 446 L 556 447 L 557 447 L 558 448 L 558 449 L 559 450 L 560 451 L 561 452 L 561 453 L 562 454 L 562 455 L 562 456 L 562 457 L 562 458 L 562 459 L 562 460 L 562 461 L 562 462 L 562 463 L 561 464 L 561 465 L 561 466 L 560 467 L 560 468 L 560 469 L 559 470 L 559 471 L 558 472 L 558 473 L 557 474 L 556 475 L 556 476 L 555 477 L 555 478 L 554 479 L 553 480 L 553 481 L 552 482 L 551 483 L 550 484 L 550 485 L 549 486 L 548 487 L 547 488 L 546 489 L 545 490 L 544 491 L 543 492 L 542 493 L 541 494 L 540 495 L 539 496 L 538 496 L 537 497 L 536 498 L 535 499 L 534 499 L 533 500 L 532 501 L 531 501 L 530 502 L 529 503 L 528 503 L 527 504 L 526 505 L 525 505 L 524 506 L 523 506 L 522 507 L 521 507 L 520 508 L 519 508 L 518 509 L 517 509 L 516 510 L 515 510 L 514 511 L 513 511 L 512 512 L 511 512 L 510 512 L 509 513 L 508 513 L 507 514 L 506 514 L 505 514 L 504 515 L 503 515 L 502 516 L 501 516 L 500 516 L 499 517 L 498 517 L 497 518 L 496 518 L 495 518 L 494 519 L 493 519 L 492 519 L 491 520 L 490 520 L 489 520 L 488 521 L 487 521 L 486 522 L 485 522 L 484 522 L 483 523 L 482 523 L 481 524 L 480 524 L 479 524 L 478 525 L 477 525 L 476 525 L 475 526 L 474 526 L 473 526 L 472 527 L 471 527 L 470 528 L 469 528 L 468 528 L 467 529 L 466 529 L 465 530 L 464 530 L 463 530 L 462 531 L 461 531 L 460 532 L 459 532 L 458 532 L 457 533 L 456 533 L 455 534 L 454 534 L 453 535 L 452 535 L 451 536 L 450 536 L 449 537 L 448 537 L 447 538 L 446 538 L 445 539 L 444 539 L 443 540 L 442 540 L 441 541 L 440 541 L 439 542 L 438 543 L 437 543 L 436 544 L 435 544 L 434 545 L 433 546 L 432 546 L 431 547 L 430 547 L 429 548 L 428 549 L 427 549 L 426 550 L 425 550 L 424 551 L 423 552 L 422 552 L 421 553 L 420 554 L 419 555 L 418 555 L 417 556 L 416 557 L 415 558 L 414 558 L 413 559 L 412 560 L 411 561 L 410 562 L 409 563 L 408 563 L 407 564 L 406 565 L 405 566 L 404 567 L 403 568 L 402 569 L 401 570 L 400 571 L 399 572 L 398 573 L 397 574 L 396 575 L 395 576 L 394 577 L 393 578 L 392 579 L 391 580 L 390 581 L 389 582 L 388 583 L 387 584 L 387 585 L 386 586 L 385 587 L 384 588 L 383 589 L 382 590 L 381 591 L 381 592 L 380 593 L 379 594 L 378 595 L 378 596 L 377 597 L 376 598 L 376 599 L 375 600 L 374 601 L 374 602 L 373 603 L 372 604 L 372 605 L 371 606 L 371 607 L 370 608 L 370 609 L 369 610 L 369 611 L 368 612 L 367 613 L 367 614 L 366 615 L 366 616 L 365 617 L 365 618 L 364 619 L 364 620 L 363 621 L 363 622 L 362 623 L 362 624 L 362 625 L 361 626 L 361 627 L 360 628 L 360 629 L 360 630 L 359 631 L 359 632 L 358 633 L 358 634 L 358 635 L 358 636 L 357 637 L 357 638 L 357 639 L 356 640 L 356 641 L 356 642 L 355 643 L 355 644 L 355 645 L 354 646 L 354 647 L 354 648 L 354 649 L 353 650 L 353 651 L 353 652 L 353 653 L 352 654 L 352 655 L 352 656 L 352 657 L 352 658 L 352 659 L 351 660 L 351 661 L 351 662 L 351 663 L 351 664 L 351 665 L 350 666 L 350 667 L 350 668 L 350 669 L 350 670 L 350 671 L 350 672 L 350 673 L 350 674 L 350 675 L 350 676 L 350 677 L 349 678 L 349 679 L 349 680 L 349 681 L 349 682 L 349 683 L 349 684 L 349 685 L 349 686 L 349 687 L 349 688 L 349 689 L 349 690 L 350 691 L 350 692 L 350 693 L 350 694 L 350 695 L 350 696 L 350 697 L 350 698 L 350 699 L 350 700 L 351 701 L 351 702 L 351 703 L 351 704 L 351 705 L 352 706 L 352 707 L 352 708 L 352 709 L 351 710 L 350 710 L 349 709 L 348 708 L 347 707 L 346 706 L 345 705 L 344 705 L 343 704 L 342 703 L 341 702 L 340 701 L 339 700 L 338 699 L 337 698 L 336 698 L 335 697 L 334 696 L 333 695 L 332 694 L 331 693 L 330 692 L 329 691 L 328 690 L 327 689 L 326 688 L 325 687 L 324 686 L 323 685 L 322 684 L 322 683 L 321 682 L 320 681 L 319 680 L 318 679 L 317 678 L 316 677 L 315 676 L 315 675 L 314 674 L 313 673 L 312 672 L 311 671 L 310 670 L 310 669 L 309 668 L 308 667 L 307 666 L 306 665 L 305 664 L 305 663 L 304 662 L 303 661 L 303 660 L 302 659 L 301 658 L 300 657 L 300 656 L 299 655 L 298 654 L 298 653 L 297 652 L 296 651 L 296 650 L 295 649 L 294 648 L 293 647 L 293 646 L 292 645 L 292 644 L 291 643 L 290 642 L 290 641 L 289 640 L 288 639 L 288 638 L 287 637 L 287 636 L 286 635 L 286 634 L 285 633 L 285 632 L 284 631 L 284 630 L 283 629 L 282 628 L 282 627 L 281 626 L 281 625 L 280 624 L 280 623 L 279 622 L 279 621 L 278 620 L 278 619 L 277 618 L 277 617 L 276 616 L 276 615 L 276 614 L 275 613 L 275 612 L 274 611 L 274 610 L 273 609 L 273 608 L 272 607 L 272 606 L 272 605 L 271 604 L 271 603 L 271 602 L 270 601 L 270 600 L 270 599 L 269 598 L 269 597 L 269 596 L 268 595 L 268 594 L 268 593 L 267 592 L 267 591 L 267 590 L 266 589 L 266 588 L 266 587 L 265 586 L 265 585 L 265 584 L 264 583 L 264 582 L 264 581 L 263 580 L 263 579 L 263 578 L 262 577 L 262 576 L 262 575 L 262 574 L 261 573 L 261 572 L 261 571 L 261 570 L 260 569 L 260 568 L 260 567 L 260 566 L 260 565 L 259 564 L 259 563 L 259 562 L 259 561 L 258 560 L 258 559 L 258 558 L 258 557 L 258 556 L 258 555 L 257 554 L 257 553 L 257 552 L 257 551 L 257 550 L 257 549 L 256 548 L 256 547 L 256 546 L 256 545 L 256 544 L 256 543 L 256 542 L 255 541 L 255 540 L 255 539 L 255 538 L 255 537 L 255 536 L 255 535 L 255 534 L 255 533 L 255 532 L 255 531 L 254 530 L 254 529 L 254 528 L 254 527 L 254 526 L 254 525 L 254 524 L 254 523 L 254 522 L 254 521 L 254 520 L 254 519 L 254 518 L 254 517 L 254 516 L 254 515 L 254 514 L 254 513 L 254 512 L 254 511 L 254 510 L 254 509 L 254 508 L 254 507 L 254 506 L 254 505 L 254 504 L 254 503 L 254 502 L 254 501 L 254 500 L 254 499 L 254 498 L 255 497 L 255 496 L 255 495 L 255 494 L 255 493 L 255 492 L 255 491 L 255 490 L 255 489 L 255 488 L 255 487 L 256 486 L 256 485 L 256 484 L 256 483 L 256 482 L 256 481 L 256 480 L 256 479 L 256 478 L 257 477 L 257 476 L 257 475 L 257 474 L 257 473 L 257 472 L 258 471 L 258 470 L 258 469 L 258 468 L 258 467 L 258 466 L 259 465 L 259 464 L 259 463 L 259 462 L 259 461 L 260 460 L 260 459 L 260 458 L 260 457 L 260 456 L 261 455 L 261 454 L 261 453 L 261 452 L 262 451 L 262 450 L 262 449 L 262 448 L 263 447 L 263 446 L 263 445 L 263 444 L 264 443 L 264 442 L 264 441 L 265 440 L 265 439 L 265 438 L 265 437 L 266 436 L 266 435 L 266 434 L 267 433 L 267 432 L 267 431 L 268 430 L 268 429 L 268 428 L 269 427 L 269 426 L 269 425 L 270 424 L 270 423 L 270 422 L 271 421 L 271 420 L 272 419 L 272 418 L 272 417 L 273 416 L 273 415 L 273 414 L 274 413 L 274 412 L 275 411 L 275 410 L 276 409 L 276 408 L 276 407 L 277 406 L 277 405 L 278 404 L 278 403 L 279 402 L 279 401 L 280 400 L 280 399 L 281 398 L 281 397 L 282 396 L 282 395 L 283 394 L 283 393 L 284 392 L 284 391 L 285 390 L 285 389 L 286 388 L 287 387 L 287 386 L 288 385 L 288 384 L 289 383 L 289 382 L 290 381 L 291 380 L 291 379 L 292 378 L 292 377 L 293 376 L 293 375 L 294 374 L 295 373 L 295 372 L 296 371 L 297 370 L 297 369 L 298 368 L 299 367 L 299 366 L 300 365 L 301 364 L 301 363 L 302 362 L 303 361 L 304 360 L 304 359 L 305 358 L 306 357 L 307 356 L 307 355 L 308 354 L 309 353 L 310 352 L 311 351 L 311 350 L 312 349 L 313 348 L 314 347 L 315 346 L 316 345 L 316 344 L 317 343 L 318 342 L 319 341 L 320 340 L 321 339 L 322 338 L 323 337 L 324 336 L 325 335 L 326 334 L 327 333 L 328 332 L 329 331 L 330 330 L 331 329 L 332 328 L 333 327 L 334 326 L 335 325 L 336 324 L 337 323 L 338 322 L 339 321 L 340 320 L 341 319 L 342 318 L 343 317 L 344 316 L 345 315 L 346 314 L 347 314 L 348 313 L 349 312 L 350 311 L 351 310 L 352 310 L 353 309 L 354 308 L 355 307 L 356 306 L 357 305 L 358 305 L 359 304 L 360 303 L 361 303 L 362 302 L 363 301 L 364 300 L 365 300 L 366 299 L 367 298 L 368 298 L 369 297 L 370 296 L 371 296 L 372 295 L 373 294 L 374 294 L 375 293 L 376 292 L 377 292 L 378 291 L 379 290 L 380 290 L 381 289 L 382 289 L 383 288 L 384 288 L 385 287 L 386 286 L 387 286 L 388 285 L 389 285 L 390 284 L 391 284 L 392 283 L 393 283 L 394 282 L 395 281 L 396 281 L 397 280 L 398 280 L 399 279 L 400 279 L 401 279 L 402 278 L 403 278 L 404 277 L 405 277 L 406 276 L 407 276 L 408 275 L 409 275 L 410 274 L 411 274 L 412 273 L 413 273 L 414 272 L 415 272 L 416 272 L 417 271 L 418 271 L 419 270 L 420 270 L 421 269 L 422 269 L 423 269 L 424 268 L 425 268 L 426 268 L 427 267 L 428 267 L 429 267 L 430 266 L 431 266 L 432 265 L 433 265 L 434 265 L 435 264 L 436 264 L 437 264 L 438 264 L 439 263 L 440 263 L 441 263 L 442 262 L 443 262 L 444 262 L 445 262 L 446 261 L 447 261 L 448 261 L 449 260 L 450 260 L 451 260 L 452 260 L 453 259 L 454 259 L 455 259 L 456 259 L 457 259 L 458 258 L 459 258 L 460 258 L 461 258 L 462 257 L 463 257 L 464 257 L 465 257 L 466 257 L 467 256 L 468 256 L 469 256 L 470 256 L 471 256 L 472 255 L 473 255 L 474 255 L 475 255 L 476 255 L 477 255 L 478 254 L 479 254 L 480 254 L 481 254 L 482 254 L 483 254 L 484 254 L 485 254 L 486 253 L 487 253 L 488 253 L 489 253 L 490 253 L 491 253 L 492 253 L 493 253 L 494 253 L 496 243 L 495 244 L 494 244 L 493 244 L 492 244 L 491 244 L 490 244 L 489 244 L 488 244 L 487 244 L 486 244 L 485 244 L 484 245 L 483 245 L 482 245 L 481 245 L 480 245 L 479 245 L 478 246 L 477 246 L 476 246 L 475 246 L 474 246 L 473 246 L 472 246 L 471 247 L 470 247 L 469 247 L 468 247 L 467 247 L 466 247 L 465 248 L 464 248 L 463 248 L 462 248 L 461 248 L 460 249 L 459 249 L 458 249 L 457 249 L 456 249 L 455 250 L 454 250 L 453 250 L 452 250 L 451 250 L 450 251 L 449 251 L 448 251 L 447 252 L 446 252 L 445 252 L 444 252 L 443 253 L 442 253 L 441 253 L 440 253 L 439 254 L 438 254 L 437 254 L 436 255 L 435 255 L 434 255 L 433 256 L 432 256 L 431 256 L 430 257 L 429 257 L 428 257 L 427 258 L 426 258 L 425 258 L 424 259 L 423 259 L 422 259 L 421 260 L 420 260 L 419 260 L 418 261 L 417 261 L 416 262 L 415 262 L 414 262 L 413 263 L 412 263 L 411 264 L 410 264 L 409 265 L 408 265 L 407 265 L 406 266 L 405 266 L 404 267 L 403 267 L 402 268 L 401 268 L 400 269 L 399 269 L 398 270 L 397 270 L 396 271 L 395 271 L 394 272 L 393 272 L 392 273 L 391 273 L 390 274 L 389 274 L 388 275 L 387 275 L 386 276 L 385 276 L 384 277 L 383 278 L 382 278 L 381 279 L 380 279 L 379 280 L 378 281 L 377 281 L 376 282 L 375 282 L 374 283 L 373 283 L 372 284 L 371 285 L 370 285 L 369 286 L 368 287 L 367 287 L 366 288 L 365 289 L 364 289 L 363 290 L 362 291 L 361 291 L 360 292 L 359 293 L 358 294 L 357 294 L 356 295 L 355 296 L 354 296 L 353 297 L 352 298 L 351 299 L 350 299 L 349 300 L 348 301 L 347 302 L 346 302 L 345 303 L 344 304 L 343 305 L 342 306 L 341 306 L 340 307 L 339 308 L 338 309 L 337 310 L 336 311 L 335 312 L 334 312 L 333 313 L 332 314 L 331 315 L 330 316 L 329 317 L 328 318 L 327 319 L 326 320 L 325 321 L 324 322 L 323 323 L 322 324 L 321 325 L 320 326 L 319 327 L 318 328 L 317 329 L 316 330 L 316 331 L 315 332 L 314 333 L 313 334 L 312 335 L 311 336 L 310 337 L 309 338 L 309 339 L 308 340 L 307 341 L 306 342 L 305 343 L 305 344 L 304 345 L 303 346 L 302 347 L 302 348 L 301 349 L 300 350 L 299 351 L 299 352 L 298 353 L 297 354 L 296 355 L 295 356 L 295 357 L 294 358 L 293 359 L 293 360 L 292 361 L 291 362 L 291 363 L 290 364 L 289 365 L 289 366 L 288 367 L 287 368 L 287 369 L 286 370 L 286 371 L 285 372 L 284 373 L 284 374 L 283 375 L 282 376 L 282 377 L 281 378 L 281 379 L 280 380 L 279 381 L 279 382 L 278 383 L 278 384 L 277 385 L 277 386 L 276 387 L 275 388 L 275 389 L 274 390 L 274 391 L 273 392 L 273 393 L 272 394 L 272 395 L 272 396 L 271 397 L 271 398 L 270 399 L 270 400 L 269 401 L 269 402 L 268 403 L 268 404 L 268 405 L 267 406 L 267 407 L 266 408 L 266 409 L 265 410 L 265 411 L 264 412 L 264 413 L 264 414 L 263 415 L 263 416 L 263 417 L 262 418 L 262 419 L 262 420 L 261 421 L 261 422 L 260 423 L 260 424 L 260 425 L 259 426 L 259 427 L 259 428 L 258 429 L 258 430 L 258 431 L 258 432 L 257 433 L 257 434 L 257 435 L 257 436 L 256 437 L 256 438 L 256 439 L 256 440 L 255 441 L 255 442 L 255 443 L 254 444 L 254 445 L 254 446 L 254 447 L 253 448 L 253 449 L 253 450 L 253 451 L 252 452 L 252 453 L 252 454 L 252 455 L 251 456 L 251 457 L 251 458 L 251 459 L 250 460 L 250 461 L 250 462 L 250 463 L 250 464 L 250 465 L 249 466 L 249 467 L 249 468 L 249 469 L 249 470 L 249 471 L 249 472 L 248 473 L 248 474 L 248 475 L 248 476 L 248 477 L 248 478 L 248 479 L 248 480 L 247 481 L 247 482 L 247 483 L 247 484 L 247 485 L 247 486 L 247 487 L 247 488 L 246 489 L 246 490 L 246 491 L 246 492 L 246 493 L 246 494 L 246 495 L 246 496 L 246 497 L 246 498 L 246 499 L 246 500 L 246 501 L 246 502 L 246 503 L 245 504 L 245 505 L 245 506 L 245 507 L 245 508 L 245 509 L 245 510 L 245 511 L 245 512 L 245 513 L 245 514 L 245 515 L 245 516 L 245 517 L 245 518 L 245 519 L 245 520 L 246 521 L 246 522 L 246 523 L 246 524 L 246 525 L 246 526 L 246 527 L 246 528 L 246 529 L 246 530 L 246 531 L 246 532 L 246 533 L 246 534 L 246 535 L 246 536 L 246 537 L 246 538 L 246 539 L 247 540 L 247 541 L 247 542 L 247 543 L 247 544 L 247 545 L 247 546 L 247 547 L 248 548 L 248 549 L 248 550 L 248 551 L 248 552 L 248 553 L 248 554 L 249 555 L 249 556 L 249 557 L 249 558 L 249 559 L 250 560 L 250 561 L 250 562 L 250 563 L 250 564 L 250 565 L 250 566 L 251 567 L 251 568 L 251 569 L 251 570 L 252 571 L 252 572 L 252 573 L 252 574 L 253 575 L 253 576 L 253 577 L 253 578 L 254 579 L 254 580 L 254 581 L 254 582 L 255 583 L 255 584 L 255 585 L 256 586 L 256 587 L 256 588 L 256 589 L 257 590 L 257 591 L 257 592 L 258 593 L 258 594 L 258 595 L 259 596 L 259 597 L 259 598 L 260 599 L 260 600 L 260 601 L 261 602 L 261 603 L 262 604 L 262 605 L 262 606 L 263 607 L 263 608 L 264 609 L 264 610 L 264 611 L 265 612 L 265 613 L 266 614 L 266 615 L 267 616 L 267 617 L 267 618 L 268 619 L 268 620 L 269 621 L 269 622 L 270 623 L 270 624 L 271 625 L 271 626 L 272 627 L 272 628 L 273 629 L 273 630 L 274 631 L 274 632 L 275 633 L 275 634 L 276 635 L 276 636 L 277 637 L 277 638 L 278 639 L 279 640 L 279 641 L 280 642 L 280 643 L 281 644 L 282 645 L 282 646 L 283 647 L 284 648 L 284 649 L 285 650 L 285 651 L 286 652 L 287 653 L 287 654 L 288 655 L 289 656 L 289 657 L 290 658 L 291 659 L 291 660 L 292 661 L 293 662 L 293 663 L 294 664 L 295 665 L 296 666 L 297 667 L 297 668 L 298 669 L 299 670 L 300 671 L 301 672 L 301 673 L 302 674 L 303 675 L 304 676 L 304 677 L 305 678 L 306 679 L 307 680 L 308 681 L 309 682 L 309 683 L 310 684 L 311 685 L 312 686 L 313 687 L 314 688 L 315 689 L 316 690 L 317 691 L 318 692 L 318 693 L 319 694 L 320 695 L 321 695 L 322 696 L 322 697 L 323 698 L 324 699 L 325 700 L 326 701 L 327 702 L 328 703 L 329 703 L 330 704 L 331 705 L 332 706 L 333 707 L 334 708 L 335 709 L 336 710 L 337 711 L 338 712 L 339 713 L 340 713 L 341 714 L 342 715 L 343 716 L 344 717 L 345 718 L 346 718 L 347 719 L 348 720 L 349 721 L 350 721 L 351 722 L 352 723 L 353 724 L 354 725 L 355 726 L 356 727 L 357 728 L 358 729 L 358 730 L 359 731 L 359 732 L 360 733 L 360 734 L 361 735 L 362 736 L 362 737 L 363 738 L 363 739 L 364 740 L 365 741 L 365 742 L 366 743 L 366 744 L 367 745 L 368 746 L 368 747 L 369 748 L 370 749 L 371 750 L 371 751 L 372 752 L 373 753 L 374 754 L 375 755 L 376 755 L 377 755 L 378 755 L 379 754 L 380 754 L 380 753 L 381 752 L 381 751 L 381 750 L 380 749 L 380 748 L 379 747 L 379 746 L 378 745 L 377 744 L 377 743 L 376 742 L 375 741 L 375 740 L 374 739 L 373 738 L 373 737 L 374 736 L 375 737 L 376 738 L 377 739 L 378 740 L 379 741 L 380 741 L 381 742 L 382 743 L 383 743 L 384 744 L 385 745 L 386 745 L 387 746 L 388 747 L 389 747 L 390 748 L 391 748 L 392 749 L 393 749 L 394 750 L 395 751 L 396 751 L 397 751 L 398 752 L 399 752 L 400 753 L 401 753 L 402 754 L 403 754 L 404 755 L 405 755 L 406 756 L 407 756 L 408 757 L 409 757 L 410 758 L 411 758 L 412 759 L 413 759 L 414 759 L 415 760 L 416 760 L 417 761 L 418 761 L 419 761 L 420 762 L 421 762 L 422 763 L 423 763 L 424 763 L 425 764 L 426 764 L 427 764 L 428 765 L 429 765 L 430 765 L 431 766 L 432 766 L 433 767 L 434 767 L 435 767 L 436 767 L 437 768 L 438 768 L 439 768 L 440 769 L 441 769 L 442 769 L 443 770 L 444 770 L 445 770 L 446 771 L 447 771 L 448 771 L 449 771 L 450 772 L 451 772 L 452 772 L 453 773 L 454 773 L 455 773 L 456 773 L 457 773 L 458 774 L 459 774 L 460 774 L 461 774 L 462 775 L 463 775 L 464 775 L 465 775 L 466 775 L 467 776 L 468 776 L 469 776 L 470 776 L 471 776 L 472 777 L 473 777 L 474 777 L 475 777 L 476 777 L 477 778 L 478 778 L 479 778 L 480 778 L 481 778 L 482 778 L 483 778 L 484 779 L 485 779 L 486 779 L 487 779 L 488 779 L 489 779 L 490 779 L 491 779 L 492 779 L 493 780 L 494 780 L 495 780 L 496 780 L 497 780 L 498 780 L 499 780 L 500 780 L 501 780 L 502 780 L 503 780 L 504 780 L 505 780 L 506 780 L 507 780 L 508 780 L 509 780 L 510 780 L 511 780 L 512 780 L 513 780 L 514 780 L 515 780 L 516 780 L 517 780 L 518 780 L 519 780 L 520 780 L 521 780 L 522 780 L 523 780 L 524 780 L 525 780 L 526 780 L 527 780 L 528 780 L 529 780 L 530 780 L 531 780 L 532 780 L 533 780 L 534 780 L 535 779 L 536 779 L 537 779 L 538 779 L 539 779 L 540 779 L 541 779 L 542 779 L 543 778 L 544 778 L 545 778 L 546 778 L 547 778 L 548 778 L 549 778 L 550 777 L 551 777 L 552 777 L 553 777 L 554 777 L 555 777 L 556 776 L 557 776 L 558 776 L 559 776 L 560 776 L 561 775 L 562 775 L 563 775 L 564 775 L 565 775 L 566 774 L 567 774 L 568 774 L 569 774 L 570 773 L 571 773 L 572 773 L 573 773 L 574 772 L 575 772 L 576 772 L 577 771 L 578 771 L 579 771 L 580 771 L 581 770 L 582 770 L 583 770 L 584 769 L 585 769 L 586 769 L 587 768 L 588 768 L 589 768 L 590 768 L 591 767 L 592 767 L 593 767 L 594 766 L 595 766 L 596 766 L 597 765 L 598 765 L 599 764 L 600 764 L 601 763 L 602 763 L 603 763 L 604 762 L 605 762 L 606 761 L 607 761 L 608 760 L 609 760 L 610 760 L 611 759 L 612 759 L 613 759 L 614 758 L 615 758 L 616 757 L 617 757 L 618 756 L 619 756 L 620 755 L 621 755 L 622 754 L 623 754 L 624 753 L 625 753 L 626 752 L 627 752 L 628 751 L 629 750 L 630 750 L 631 749 L 632 749 L 633 748 L 634 748 L 635 747 L 636 747 L 637 746 L 638 746 L 639 745 L 640 745 L 641 744 L 642 743 L 643 743 L 644 742 L 645 741 L 646 741 L 647 740 L 648 740 L 649 739 L 650 738 L 651 737 L 652 737 L 653 736 L 654 735 L 655 735 L 656 734 L 657 733 L 658 732 L 659 731 L 660 731 L 661 730 L 662 729 L 663 729 L 664 728 L 665 729 L 665 730 L 664 731 L 664 732 L 664 733 L 664 734 L 665 735 L 666 736 L 667 737 L 668 737 L 669 737 L 670 737 L 671 736 L 672 735 L 673 734 L 673 733 L 674 732 L 674 731 L 675 730 L 675 729 L 676 728 L 676 727 L 677 726 L 677 725 L 677 724 L 678 723 L 678 722 L 678 721 L 679 720 L 679 719 L 680 718 L 680 717 L 681 716 L 682 715 L 683 714 L 684 713 L 685 712 L 686 712 L 687 711 L 688 710 L 689 709 L 690 708 L 691 708 L 692 707 L 693 706 L 694 705 L 695 704 L 696 704 L 697 703 L 698 702 L 699 701 L 700 700 L 701 699 L 702 698 L 703 697 L 704 696 L 705 695 L 706 694 L 707 693 L 708 692 L 709 691 L 710 690 L 711 689 L 712 688 L 713 687 L 713 686 L 714 685 L 715 684 L 716 683 L 717 682 L 718 681 L 719 680 L 720 679 L 720 678 L 721 677 L 722 676 L 723 675 L 724 674 L 725 673 L 725 672 L 726 671 L 727 670 L 728 669 L 729 668 L 729 667 L 730 666 L 731 665 L 732 664 L 732 663 L 733 662 L 734 661 L 734 660 L 735 659 L 736 658 L 736 657 L 737 656 L 738 655 L 738 654 L 739 653 L 740 652 L 740 651 L 741 650 L 742 649 L 742 648 L 743 647 L 744 646 L 744 645 L 745 644 L 745 643 L 746 642 L 747 641 L 747 640 L 748 639 L 748 638 L 749 637 L 749 636 L 750 635 L 751 634 L 751 633 L 752 632 L 752 631 L 753 630 L 753 629 L 753 628 L 754 627 L 754 626 L 755 625 L 755 624 L 756 623 L 756 622 L 757 621 L 757 620 L 758 619 L 758 618 L 759 617 L 759 616 L 759 615 L 760 614 L 760 613 L 760 612 L 761 611 L 761 610 L 762 609 L 762 608 L 762 607 L 763 606 L 763 605 L 764 604 L 764 603 L 765 602 L 765 601 L 765 600 L 766 599 L 766 598 L 766 597 L 767 596 L 767 595 L 767 594 L 768 593 L 768 592 L 768 591 L 769 590 L 769 589 L 769 588 L 769 587 L 770 586 L 770 585 L 770 584 L 771 583 L 771 582 L 771 581 L 771 580 L 772 579 L 772 578 L 772 577 L 773 576 L 773 575 L 773 574 L 773 573 L 774 572 L 774 571 L 774 570 L 774 569 L 775 568 L 775 567 L 775 566 L 775 565 L 775 564 L 776 563 L 776 562 L 776 561 L 776 560 L 776 559 L 776 558 L 777 557 L 777 556 L 777 555 L 777 554 L 777 553 L 777 552 L 778 551 L 778 550 L 778 549 L 778 548 L 778 547 L 778 546 L 779 545 L 779 544 L 779 543 L 779 542 L 779 541 L 779 540 L 779 539 L 779 538 L 780 537 L 780 536 L 780 535 L 780 534 L 780 533 L 780 532 L 780 531 L 780 530 L 780 529 L 780 528 L 780 527 L 780 526 L 780 525 L 780 524 L 780 523 L 781 522 L 781 521 L 781 520 L 781 519 L 781 518 L 781 517 L 781 516 L 781 515 L 781 514 L 781 513 L 781 512 L 781 511 L 781 510 L 781 509 L 781 508 L 781 507 L 781 506 L 781 505 L 781 504 L 781 503 L 781 502 L 781 501 L 781 500 L 781 499 L 781 498 L 780 497 L 780 496 L 780 495 L 780 494 L 780 493 L 780 492 L 780 491 L 780 490 L 780 489 L 780 488 L 780 487 L 780 486 L 780 485 L 780 484 L 779 483 L 779 482 L 779 481 L 779 480 L 779 479 L 779 478 L 779 477 L 779 476 L 778 475 L 778 474 L 778 473 L 778 472 L 778 471 L 778 470 L 777 469 L 777 468 L 777 467 L 777 466 L 777 465 L 776 464 L 776 463 L 776 462 L 776 461 L 776 460 L 776 459 L 775 458 L 775 457 L 775 456 L 775 455 L 774 454 L 774 453 L 774 452 L 774 451 L 773 450 L 773 449 L 773 448 L 773 447 L 772 446 L 772 445 L 772 444 L 772 443 L 771 442 L 771 441 L 771 440 L 771 439 L 770 438 L 770 437 L 770 436 L 769 435 L 769 434 L 769 433 L 768 432 L 768 431 L 768 430 L 767 429 L 767 428 L 767 427 L 766 426 L 766 425 L 766 424 L 765 423 L 765 422 L 765 421 L 764 420 L 764 419 L 764 418 L 763 417 L 763 416 L 763 415 L 762 414 L 762 413 L 761 412 L 761 411 L 761 410 L 760 409 L 760 408 L 759 407 L 759 406 L 759 405 L 758 404 L 758 403 L 757 402 L 757 401 L 756 400 L 756 399 L 755 398 L 755 397 L 754 396 L 754 395 L 753 394 L 753 393 L 752 392 L 752 391 L 751 390 L 751 389 L 750 388 L 750 387 L 749 386 L 749 385 L 748 384 L 748 383 L 747 382 L 747 381 L 746 380 L 746 379 L 745 378 L 744 377 L 744 376 L 743 375 L 743 374 L 742 373 L 741 372 L 741 371 L 740 370 L 739 369 L 739 368 L 738 367 L 737 366 L 737 365 L 736 364 L 735 363 L 735 362 L 734 361 L 733 360 L 733 359 L 732 358 L 731 357 L 731 356 L 730 355 L 729 354 L 728 353 L 728 352 L 727 351 L 726 350 L 726 349 L 725 348 L 724 347 L 723 346 L 722 345 L 722 344 L 721 343 L 720 342 L 719 341 L 718 340 L 718 339 L 717 338 L 716 337 L 715 336 L 714 335 L 713 334 L 712 333 L 711 332 L 710 331 L 710 330 L 709 329 L 708 328 L 707 327 L 706 326 L 705 325 L 704 324 L 703 323 L 702 322 L 701 321 L 700 320 L 699 319 L 698 318 L 697 317 L 696 316 L 695 315 L 694 314 L 693 313 L 692 312 L 691 311 L 690 310 L 689 310 L 688 309 L 687 308 L 686 307 L 685 306 L 684 305 L 683 304 L 682 304 L 681 303 L 680 302 L 679 301 L 678 300 L 677 300 L 676 299 L 675 298 L 674 297 L 673 297 L 672 296 L 671 295 L 670 294 L 669 294 L 668 293 L 667 292 L 666 292 L 665 291 L 664 290 L 663 290 L 662 289 L 661 288 L 660 288 L 659 287 L 658 286 L 657 286 L 656 285 L 655 284 L 654 283 L 653 283 L 652 282 L 651 282 L 650 281 L 649 280 L 648 280 L 647 279 L 646 278 L 645 278 L 644 277 L 643 277 L 642 276 L 641 276 L 640 275 L 639 274 L 638 274 L 637 273 L 636 273 L 635 272 L 634 272 L 633 271 L 632 271 L 631 270 L 630 270 L 629 269 L 628 269 L 627 268 L 626 268 L 625 268 L 624 267 L 623 267 L 622 266 L 621 266 L 620 266 L 619 265 L 618 265 L 617 264 L 616 264 L 615 263 L 614 263 L 613 263 L 612 262 L 611 262 L 610 261 L 609 261 L 608 261 L 607 260 L 606 260 L 605 259 L 604 259 L 603 259 L 602 258 L 601 258 L 600 258 L 599 257 L 598 257 L 597 257 L 596 256 L 595 256 L 594 256 L 593 255 L 592 255 L 591 255 L 590 255 L 589 254 L 588 254 L 587 254 L 586 253 L 585 253 L 584 253 L 583 252 L 582 252 L 581 252 L 580 252 L 579 251 L 578 251 L 577 251 L 576 250 L 575 250 L 574 250 L 573 250 L 572 249 L 571 249 L 570 249 L 569 249 L 568 249 L 567 248 L 566 248 L 565 248 L 564 248 L 563 248 L 562 248 L 561 247 L 560 247 L 559 247 L 558 247 L 557 247 L 556 247 L 555 246 L 554 246 L 553 246 L 552 246 L 551 246 L 550 246 L 549 245 L 548 245 L 547 245 L 546 245 L 545 245 L 544 245 L 543 244 L 542 244 L 541 244 L 540 244 L 539 244 L 538 244 L 537 244 L 536 244 L 535 244 L 534 244 L 533 244 L 532 244 L 531 243 L 530 243 L 529 243 L 528 243 L 527 243 L 526 243 L 525 243 L 524 243 L 523 243 L 522 243 L 521 243 L 520 243 L 519 243 L 518 243 L 517 243 L 516 243 L 515 243 L 514 243 L 513 243 L 512 243 L 511 243 L 510 243 L 509 243 L 508 243 L 507 243 L 506 243 L 505 243 L 504 243 L 503 243 L 502 243 L 501 243 L 500 243 L 499 243 L 498 243 L 497 243 L 551 339 L 552 338 L 553 339 L 552 340 L 552 340 L 553 339 L 554 340 L 555 340 L 556 341 L 557 341 L 558 342 L 559 343 L 560 343 L 561 344 L 562 345 L 563 346 L 563 347 L 562 348 L 561 349 L 560 349 L 559 350 L 558 351 L 557 352 L 556 353 L 555 352 L 555 351 L 555 350 L 554 349 L 554 348 L 554 347 L 553 346 L 553 345 L 553 344 L 552 343 L 552 342 L 552 341 L 599 341 L 598 341 L 597 341 L 596 341 L 595 342 L 594 342 L 593 342 L 592 342 L 591 343 L 590 343 L 589 343 L 588 344 L 587 344 L 586 344 L 585 345 L 584 345 L 583 345 L 582 346 L 581 346 L 580 347 L 579 347 L 578 348 L 577 348 L 576 349 L 575 350 L 574 350 L 573 351 L 572 352 L 571 352 L 570 353 L 569 354 L 568 355 L 567 356 L 566 356 L 565 357 L 564 358 L 563 359 L 562 360 L 561 361 L 561 362 L 560 363 L 559 364 L 558 365 L 557 366 L 557 367 L 556 368 L 555 369 L 555 370 L 554 371 L 554 372 L 553 373 L 553 374 L 552 375 L 552 376 L 551 377 L 551 378 L 550 379 L 550 380 L 549 381 L 549 382 L 548 383 L 548 384 L 547 385 L 547 386 L 547 387 L 546 388 L 545 389 L 545 390 L 544 391 L 544 392 L 543 393 L 543 394 L 542 395 L 541 396 L 540 397 L 540 398 L 539 399 L 538 400 L 537 401 L 536 402 L 535 403 L 534 403 L 533 404 L 533 405 L 533 406 L 533 407 L 534 408 L 534 409 L 535 410 L 535 411 L 536 412 L 536 413 L 536 414 L 537 415 L 537 416 L 538 417 L 538 418 L 539 419 L 539 420 L 540 421 L 540 422 L 540 423 L 541 424 L 541 425 L 542 426 L 542 427 L 543 428 L 543 429 L 544 430 L 544 431 L 545 432 L 546 433 L 547 433 L 548 434 L 549 434 L 550 434 L 551 434 L 552 435 L 553 435 L 554 435 L 555 436 L 556 436 L 557 436 L 558 437 L 559 437 L 560 438 L 561 438 L 562 439 L 563 440 L 564 441 L 565 442 L 566 443 L 567 444 L 568 445 L 568 446 L 569 447 L 569 448 L 570 449 L 570 450 L 570 451 L 570 452 L 571 453 L 571 454 L 571 455 L 571 456 L 571 457 L 571 458 L 571 459 L 571 460 L 571 461 L 571 462 L 571 463 L 570 464 L 570 465 L 570 466 L 570 467 L 569 468 L 569 469 L 569 470 L 568 471 L 568 472 L 567 473 L 567 474 L 567 475 L 566 476 L 566 477 L 565 478 L 565 479 L 564 480 L 563 481 L 563 482 L 562 483 L 561 484 L 561 485 L 560 486 L 560 487 L 559 488 L 558 489 L 557 490 L 556 491 L 556 492 L 555 493 L 554 494 L 553 495 L 552 496 L 551 497 L 550 498 L 549 499 L 548 499 L 547 500 L 546 501 L 545 502 L 544 503 L 543 504 L 542 504 L 541 505 L 540 506 L 539 506 L 538 507 L 537 508 L 536 509 L 535 509 L 534 510 L 533 510 L 532 511 L 531 512 L 530 512 L 529 513 L 528 513 L 527 514 L 526 514 L 525 515 L 524 515 L 523 516 L 522 516 L 521 517 L 520 517 L 519 517 L 518 518 L 519 519 L 520 519 L 521 519 L 522 519 L 523 519 L 524 519 L 525 519 L 526 519 L 527 519 L 528 519 L 529 519 L 530 519 L 531 519 L 532 519 L 533 519 L 534 520 L 535 520 L 536 520 L 537 520 L 538 520 L 539 520 L 540 520 L 541 520 L 542 520 L 543 520 L 544 520 L 545 521 L 546 521 L 547 521 L 548 521 L 549 521 L 550 522 L 551 522 L 552 522 L 553 522 L 554 522 L 555 522 L 556 523 L 557 523 L 558 523 L 559 523 L 560 524 L 561 524 L 562 524 L 563 524 L 564 525 L 565 525 L 566 525 L 567 525 L 568 526 L 569 526 L 570 526 L 571 527 L 572 527 L 573 527 L 574 528 L 575 528 L 576 528 L 577 528 L 578 529 L 579 529 L 580 530 L 581 530 L 582 530 L 583 530 L 584 531 L 585 531 L 586 532 L 587 532 L 588 532 L 589 533 L 590 533 L 591 534 L 592 534 L 593 535 L 594 535 L 595 535 L 596 536 L 597 536 L 598 537 L 599 537 L 600 538 L 601 538 L 602 539 L 603 539 L 604 540 L 605 540 L 606 541 L 607 542 L 608 542 L 609 543 L 610 543 L 611 544 L 612 545 L 613 545 L 614 546 L 615 547 L 616 547 L 617 548 L 618 549 L 619 549 L 620 550 L 621 551 L 622 551 L 623 552 L 624 553 L 625 554 L 626 554 L 627 555 L 628 556 L 629 557 L 630 558 L 631 558 L 632 559 L 633 560 L 634 561 L 635 562 L 636 563 L 637 564 L 638 564 L 639 565 L 640 566 L 640 567 L 641 568 L 642 569 L 643 570 L 644 571 L 645 572 L 646 573 L 647 574 L 648 575 L 649 576 L 650 577 L 651 578 L 651 579 L 652 580 L 653 581 L 654 582 L 655 583 L 655 584 L 656 585 L 657 586 L 657 587 L 658 588 L 659 589 L 660 590 L 660 591 L 661 592 L 661 593 L 662 594 L 663 595 L 663 596 L 664 597 L 665 598 L 665 599 L 666 600 L 666 601 L 667 602 L 667 603 L 668 604 L 669 605 L 669 606 L 670 607 L 670 608 L 671 609 L 671 610 L 672 611 L 673 610 L 673 609 L 673 608 L 673 607 L 673 606 L 673 605 L 674 604 L 674 603 L 674 602 L 675 601 L 675 600 L 675 599 L 675 598 L 676 597 L 676 596 L 676 595 L 676 594 L 677 593 L 677 592 L 677 591 L 677 590 L 678 589 L 678 588 L 678 587 L 678 586 L 679 585 L 679 584 L 679 583 L 679 582 L 680 581 L 680 580 L 680 579 L 680 578 L 681 577 L 681 576 L 681 575 L 681 574 L 681 573 L 682 572 L 682 571 L 682 570 L 682 569 L 683 568 L 683 567 L 683 566 L 684 565 L 684 564 L 684 563 L 684 562 L 685 561 L 685 560 L 685 559 L 685 558 L 686 557 L 686 556 L 686 555 L 686 554 L 687 553 L 687 552 L 687 551 L 687 550 L 688 549 L 688 548 L 688 547 L 688 546 L 688 545 L 689 544 L 689 543 L 689 542 L 689 541 L 690 540 L 690 539 L 690 538 L 690 537 L 690 536 L 690 535 L 691 534 L 691 533 L 691 532 L 691 531 L 692 530 L 692 529 L 692 528 L 692 527 L 692 526 L 693 525 L 693 524 L 693 523 L 693 522 L 693 521 L 694 520 L 694 519 L 694 518 L 694 517 L 694 516 L 694 515 L 695 514 L 695 513 L 695 512 L 695 511 L 695 510 L 695 509 L 696 508 L 696 507 L 696 506 L 696 505 L 696 504 L 696 503 L 696 502 L 696 501 L 697 500 L 697 499 L 697 498 L 697 497 L 697 496 L 697 495 L 697 494 L 697 493 L 697 492 L 698 491 L 698 490 L 698 489 L 698 488 L 698 487 L 698 486 L 698 485 L 698 484 L 698 483 L 698 482 L 698 481 L 698 480 L 698 479 L 698 478 L 698 477 L 698 476 L 698 475 L 698 474 L 698 473 L 698 472 L 698 471 L 698 470 L 698 469 L 698 468 L 698 467 L 698 466 L 698 465 L 698 464 L 698 463 L 698 462 L 698 461 L 698 460 L 698 459 L 698 458 L 698 457 L 698 456 L 698 455 L 698 454 L 698 453 L 698 452 L 698 451 L 698 450 L 698 449 L 697 448 L 697 447 L 697 446 L 697 445 L 697 444 L 697 443 L 697 442 L 697 441 L 697 440 L 697 439 L 696 438 L 696 437 L 696 436 L 696 435 L 696 434 L 695 433 L 695 432 L 695 431 L 695 430 L 695 429 L 694 428 L 694 427 L 694 426 L 694 425 L 693 424 L 693 423 L 693 422 L 693 421 L 692 420 L 692 419 L 692 418 L 692 417 L 691 416 L 691 415 L 691 414 L 691 413 L 690 412 L 690 411 L 690 410 L 689 409 L 689 408 L 689 407 L 688 406 L 688 405 L 688 404 L 687 403 L 687 402 L 687 401 L 686 400 L 686 399 L 685 398 L 685 397 L 684 396 L 684 395 L 684 394 L 683 393 L 683 392 L 682 391 L 682 390 L 681 389 L 681 388 L 680 387 L 680 386 L 679 385 L 679 384 L 678 383 L 677 382 L 677 381 L 676 380 L 676 379 L 675 378 L 674 377 L 674 376 L 673 375 L 672 374 L 672 373 L 671 372 L 670 371 L 670 370 L 669 369 L 668 368 L 667 367 L 666 366 L 666 365 L 665 364 L 664 363 L 663 363 L 662 362 L 661 361 L 660 360 L 659 359 L 658 358 L 657 357 L 656 356 L 655 355 L 654 355 L 653 354 L 652 353 L 651 352 L 650 352 L 649 351 L 648 350 L 647 350 L 646 349 L 645 349 L 644 348 L 643 347 L 642 347 L 641 346 L 640 346 L 639 345 L 638 345 L 637 345 L 636 344 L 635 344 L 634 343 L 633 343 L 632 343 L 631 343 L 630 342 L 629 342 L 628 342 L 627 341 L 626 341 L 625 341 L 624 341 L 623 341 L 622 340 L 621 340 L 620 340 L 619 340 L 618 340 L 617 340 L 616 340 L 615 340 L 614 340 L 613 340 L 612 340 L 611 340 L 610 340 L 609 340 L 608 340 L 607 340 L 606 340 L 605 340 L 604 340 L 603 340 L 602 340 L 601 340 L 600 341 L 636 312 L 635 313 L 634 314 L 633 315 L 633 316 L 632 317 L 631 318 L 630 319 L 630 320 L 629 321 L 628 322 L 628 323 L 627 324 L 626 325 L 625 326 L 625 327 L 624 328 L 624 329 L 623 330 L 624 331 L 625 332 L 626 332 L 627 332 L 628 332 L 629 333 L 630 333 L 631 333 L 632 334 L 633 334 L 634 334 L 635 334 L 636 335 L 637 335 L 638 336 L 639 336 L 640 336 L 641 337 L 642 337 L 643 338 L 644 338 L 645 339 L 646 339 L 647 340 L 648 340 L 649 341 L 650 341 L 651 342 L 652 342 L 653 343 L 654 344 L 655 344 L 656 345 L 657 346 L 658 346 L 659 347 L 660 348 L 661 349 L 662 350 L 663 349 L 663 348 L 662 347 L 662 346 L 661 345 L 661 344 L 660 343 L 660 342 L 659 341 L 659 340 L 658 339 L 658 338 L 657 337 L 657 336 L 656 335 L 656 334 L 655 333 L 655 332 L 654 331 L 654 330 L 653 329 L 652 328 L 652 327 L 651 326 L 650 325 L 650 324 L 649 323 L 648 322 L 648 321 L 647 320 L 646 319 L 645 318 L 645 317 L 644 316 L 643 315 L 642 314 L 641 313 L 641 312 L 640 311 L 639 310 L 638 310 L 637 310 L 636 311 L 509 529 L 510 528 L 511 528 L 512 528 L 513 528 L 514 528 L 515 528 L 516 528 L 517 528 L 518 528 L 519 528 L 520 528 L 521 528 L 522 528 L 523 528 L 524 528 L 525 528 L 526 528 L 527 528 L 528 528 L 529 528 L 530 528 L 531 528 L 532 528 L 533 528 L 534 528 L 535 529 L 536 529 L 537 529 L 538 529 L 539 529 L 540 529 L 541 529 L 542 529 L 543 530 L 544 530 L 545 530 L 546 530 L 547 530 L 548 530 L 549 531 L 550 531 L 551 531 L 552 531 L 553 531 L 554 531 L 555 532 L 556 532 L 557 532 L 558 532 L 559 533 L 560 533 L 561 533 L 562 533 L 563 534 L 564 534 L 565 534 L 566 535 L 567 535 L 568 535 L 569 535 L 570 536 L 571 536 L 572 536 L 573 537 L 574 537 L 575 537 L 576 538 L 577 538 L 578 538 L 579 539 L 580 539 L 581 539 L 582 540 L 583 540 L 584 541 L 585 541 L 586 542 L 587 542 L 588 543 L 589 543 L 590 543 L 591 544 L 592 544 L 593 545 L 594 545 L 595 546 L 596 546 L 597 547 L 598 547 L 599 548 L 600 548 L 601 549 L 602 550 L 603 550 L 604 551 L 605 551 L 606 552 L 607 552 L 608 553 L 609 554 L 610 554 L 611 555 L 612 556 L 613 556 L 614 557 L 615 558 L 616 558 L 617 559 L 618 560 L 619 561 L 620 562 L 621 562 L 622 563 L 623 564 L 624 565 L 625 566 L 626 567 L 627 567 L 628 568 L 629 569 L 630 570 L 631 571 L 632 572 L 633 573 L 634 574 L 635 575 L 636 576 L 637 577 L 638 578 L 639 579 L 640 580 L 641 581 L 642 582 L 643 583 L 644 584 L 644 585 L 645 586 L 646 587 L 647 588 L 647 589 L 648 590 L 649 591 L 650 592 L 650 593 L 651 594 L 652 595 L 652 596 L 653 597 L 654 598 L 654 599 L 655 600 L 656 601 L 656 602 L 657 603 L 657 604 L 658 605 L 659 606 L 659 607 L 660 608 L 660 609 L 661 610 L 661 611 L 662 612 L 662 613 L 663 614 L 663 615 L 664 616 L 664 617 L 665 618 L 665 619 L 666 620 L 666 621 L 666 622 L 667 623 L 667 624 L 668 625 L 668 626 L 668 627 L 668 628 L 667 629 L 667 630 L 667 631 L 667 632 L 666 633 L 666 634 L 666 635 L 666 636 L 665 637 L 665 638 L 665 639 L 665 640 L 665 641 L 664 642 L 664 643 L 664 644 L 664 645 L 664 646 L 663 647 L 663 648 L 663 649 L 663 650 L 662 651 L 662 652 L 662 653 L 662 654 L 661 655 L 661 656 L 661 657 L 660 658 L 660 659 L 660 660 L 660 661 L 660 662 L 659 663 L 659 664 L 659 665 L 658 666 L 658 667 L 658 668 L 658 669 L 657 670 L 657 671 L 657 672 L 657 673 L 656 674 L 656 675 L 656 676 L 656 677 L 655 678 L 655 679 L 655 680 L 654 681 L 654 682 L 654 683 L 654 684 L 653 685 L 653 686 L 653 687 L 652 688 L 652 689 L 651 690 L 651 691 L 651 692 L 650 693 L 650 694 L 649 695 L 649 696 L 649 697 L 648 698 L 648 699 L 647 700 L 647 701 L 646 702 L 646 703 L 646 704 L 645 705 L 645 706 L 644 707 L 644 708 L 643 709 L 643 710 L 642 711 L 642 712 L 641 713 L 641 714 L 640 715 L 640 716 L 639 717 L 639 718 L 638 719 L 638 720 L 637 721 L 636 722 L 636 723 L 635 724 L 635 725 L 634 726 L 633 727 L 633 728 L 632 729 L 631 730 L 631 731 L 630 732 L 630 733 L 629 734 L 628 735 L 628 736 L 627 737 L 627 738 L 626 739 L 625 740 L 625 741 L 624 742 L 623 743 L 622 744 L 621 744 L 620 745 L 619 745 L 618 746 L 617 746 L 616 747 L 615 747 L 614 748 L 613 748 L 612 749 L 611 749 L 610 750 L 609 750 L 608 751 L 607 751 L 606 752 L 605 752 L 604 752 L 603 753 L 602 753 L 601 754 L 600 754 L 599 754 L 598 755 L 597 755 L 596 756 L 595 756 L 594 756 L 593 757 L 592 757 L 591 757 L 590 758 L 589 758 L 588 759 L 587 759 L 586 759 L 585 760 L 584 760 L 583 760 L 582 761 L 581 761 L 580 761 L 579 761 L 578 762 L 577 762 L 576 762 L 575 763 L 574 763 L 573 763 L 572 763 L 571 764 L 570 764 L 569 764 L 568 764 L 567 765 L 566 765 L 565 765 L 564 765 L 563 766 L 562 766 L 561 766 L 560 766 L 559 767 L 558 767 L 557 767 L 556 767 L 555 767 L 554 768 L 553 768 L 552 768 L 551 768 L 550 768 L 549 768 L 548 768 L 547 769 L 546 769 L 545 769 L 544 769 L 543 769 L 542 769 L 541 769 L 540 770 L 539 770 L 538 770 L 537 770 L 536 770 L 535 770 L 534 770 L 533 770 L 532 770 L 531 771 L 530 771 L 529 771 L 528 771 L 527 771 L 526 771 L 525 771 L 524 771 L 523 771 L 522 771 L 521 771 L 520 771 L 519 771 L 518 771 L 517 771 L 516 771 L 515 771 L 514 771 L 513 771 L 512 771 L 511 771 L 510 771 L 509 771 L 508 771 L 507 771 L 506 771 L 505 771 L 504 771 L 503 771 L 502 771 L 501 771 L 500 771 L 499 771 L 498 771 L 497 771 L 496 771 L 495 771 L 494 771 L 493 771 L 492 770 L 491 770 L 490 770 L 489 770 L 488 770 L 487 770 L 486 770 L 485 770 L 484 770 L 483 769 L 482 769 L 481 769 L 480 769 L 479 769 L 478 769 L 477 768 L 476 768 L 475 768 L 474 768 L 473 768 L 472 768 L 471 767 L 470 767 L 469 767 L 468 767 L 467 766 L 466 766 L 465 766 L 464 766 L 463 765 L 462 765 L 461 765 L 460 765 L 459 764 L 458 764 L 457 764 L 456 764 L 455 763 L 454 763 L 453 763 L 452 762 L 451 762 L 450 762 L 449 762 L 448 761 L 447 761 L 446 761 L 445 761 L 444 760 L 443 760 L 442 760 L 441 760 L 440 759 L 439 759 L 438 759 L 437 758 L 436 758 L 435 758 L 434 757 L 433 757 L 432 756 L 431 756 L 430 756 L 429 755 L 428 755 L 427 755 L 426 754 L 425 754 L 424 753 L 423 753 L 422 753 L 421 752 L 420 752 L 419 751 L 418 751 L 417 750 L 416 750 L 415 750 L 414 749 L 413 749 L 412 748 L 411 748 L 410 747 L 409 747 L 408 746 L 407 746 L 406 745 L 405 745 L 404 744 L 403 744 L 402 743 L 401 743 L 400 742 L 399 742 L 398 741 L 397 741 L 396 740 L 395 740 L 394 739 L 393 738 L 392 738 L 391 737 L 390 737 L 389 736 L 388 736 L 387 735 L 386 735 L 385 734 L 384 733 L 383 733 L 382 732 L 381 731 L 380 731 L 379 730 L 378 729 L 377 728 L 376 728 L 375 727 L 374 727 L 373 726 L 372 725 L 371 724 L 370 724 L 369 723 L 368 722 L 367 721 L 366 720 L 365 719 L 364 718 L 364 717 L 363 716 L 363 715 L 363 714 L 362 713 L 362 712 L 362 711 L 362 710 L 361 709 L 361 708 L 361 707 L 361 706 L 360 705 L 360 704 L 360 703 L 360 702 L 360 701 L 359 700 L 359 699 L 359 698 L 359 697 L 359 696 L 359 695 L 359 694 L 358 693 L 358 692 L 358 691 L 358 690 L 358 689 L 358 688 L 358 687 L 358 686 L 358 685 L 358 684 L 358 683 L 358 682 L 358 681 L 358 680 L 358 679 L 358 678 L 358 677 L 358 676 L 358 675 L 358 674 L 358 673 L 358 672 L 359 671 L 359 670 L 359 669 L 359 668 L 359 667 L 359 666 L 359 665 L 359 664 L 360 663 L 360 662 L 360 661 L 360 660 L 360 659 L 361 658 L 361 657 L 361 656 L 361 655 L 361 654 L 362 653 L 362 652 L 362 651 L 362 650 L 363 649 L 363 648 L 363 647 L 363 646 L 364 645 L 364 644 L 364 643 L 365 642 L 365 641 L 365 640 L 366 639 L 366 638 L 367 637 L 367 636 L 367 635 L 368 634 L 368 633 L 369 632 L 369 631 L 369 630 L 370 629 L 370 628 L 371 627 L 371 626 L 372 625 L 372 624 L 372 623 L 373 622 L 373 621 L 374 620 L 374 619 L 375 618 L 376 617 L 376 616 L 377 615 L 377 614 L 378 613 L 378 612 L 379 611 L 380 610 L 380 609 L 381 608 L 381 607 L 382 606 L 383 605 L 384 604 L 384 603 L 385 602 L 386 601 L 386 600 L 387 599 L 388 598 L 388 597 L 389 596 L 390 595 L 391 594 L 392 593 L 392 592 L 393 591 L 394 590 L 395 589 L 396 588 L 397 587 L 398 586 L 398 585 L 399 584 L 400 583 L 401 582 L 402 581 L 403 580 L 404 579 L 405 578 L 406 578 L 407 577 L 408 576 L 409 575 L 410 574 L 411 573 L 412 572 L 413 571 L 414 570 L 415 570 L 416 569 L 417 568 L 418 567 L 419 566 L 420 566 L 421 565 L 422 564 L 423 563 L 424 563 L 425 562 L 426 561 L 427 560 L 428 560 L 429 559 L 430 558 L 431 558 L 432 557 L 433 556 L 434 556 L 435 555 L 436 554 L 437 554 L 438 553 L 439 552 L 440 552 L 441 551 L 442 551 L 443 550 L 444 550 L 445 549 L 446 548 L 447 548 L 448 547 L 449 547 L 450 546 L 451 546 L 452 545 L 453 545 L 454 544 L 455 544 L 456 543 L 457 543 L 458 543 L 459 542 L 460 542 L 461 541 L 462 541 L 463 540 L 464 540 L 465 540 L 466 539 L 467 539 L 468 538 L 469 538 L 470 538 L 471 537 L 472 537 L 473 536 L 474 536 L 475 536 L 476 536 L 477 535 L 478 535 L 479 535 L 480 534 L 481 534 L 482 534 L 483 533 L 484 533 L 485 533 L 486 533 L 487 532 L 488 532 L 489 532 L 490 532 L 491 531 L 492 531 L 493 531 L 494 531 L 495 531 L 496 530 L 497 530 L 498 530 L 499 530 L 500 530 L 501 530 L 502 529 L 503 529 L 504 529 L 505 529 L 506 529 L 507 529 L 508 529 L 671 650 L 672 649 L 673 649 L 674 650 L 674 651 L 674 652 L 674 653 L 674 654 L 675 655 L 675 656 L 675 657 L 675 658 L 675 659 L 675 660 L 675 661 L 676 662 L 676 663 L 676 664 L 676 665 L 676 666 L 676 667 L 676 668 L 676 669 L 677 670 L 677 671 L 677 672 L 677 673 L 677 674 L 677 675 L 677 676 L 677 677 L 677 678 L 677 679 L 677 680 L 677 681 L 677 682 L 677 683 L 677 684 L 677 685 L 677 686 L 677 687 L 676 688 L 676 689 L 676 690 L 676 691 L 676 692 L 676 693 L 676 694 L 676 695 L 676 696 L 675 697 L 675 698 L 675 699 L 675 700 L 675 701 L 675 702 L 674 703 L 674 704 L 674 705 L 674 706 L 674 707 L 674 708 L 673 709 L 673 710 L 672 711 L 671 712 L 670 713 L 669 714 L 668 714 L 667 715 L 666 716 L 665 717 L 664 717 L 663 718 L 662 719 L 661 720 L 660 720 L 659 721 L 658 722 L 657 722 L 656 723 L 655 724 L 654 724 L 653 725 L 652 726 L 651 726 L 650 727 L 649 728 L 648 729 L 647 729 L 646 730 L 645 731 L 644 731 L 643 732 L 642 733 L 641 733 L 640 732 L 641 731 L 642 730 L 642 729 L 643 728 L 644 727 L 644 726 L 645 725 L 646 724 L 646 723 L 647 722 L 647 721 L 648 720 L 648 719 L 649 718 L 649 717 L 650 716 L 650 715 L 651 714 L 651 713 L 652 712 L 652 711 L 653 710 L 653 709 L 654 708 L 654 707 L 655 706 L 655 705 L 656 704 L 656 703 L 656 702 L 657 701 L 657 700 L 657 699 L 658 698 L 658 697 L 659 696 L 659 695 L 659 694 L 660 693 L 660 692 L 660 691 L 661 690 L 661 689 L 661 688 L 662 687 L 662 686 L 662 685 L 663 684 L 663 683 L 663 682 L 664 681 L 664 680 L 664 679 L 664 678 L 665 677 L 665 676 L 665 675 L 665 674 L 666 673 L 666 672 L 666 671 L 666 670 L 667 669 L 667 668 L 667 667 L 667 666 L 668 665 L 668 664 L 668 663 L 668 662 L 669 661 L 669 660 L 669 659 L 670 658 L 670 657 L 670 656 L 670 655 L 671 654 L 671 653 L 671 652 L 671 651" stroke="black" fill="none" stroke-width="1"/></svg>