<svg xmlns="http://www.w3.org/2000/svg" width="1024" height="1024" viewBox="0 0 1024 1024"><path d="M 249 504 L 255 458 L 277 395 L 313 341 L 367 292 L 429 262 L 490 248 L 487 249 L 593 260 L 650 287 L 700 327 L 740 379 L 770 452 L 776 497 L 774 540 L 766 582 L 737 647 L 690 703 L 636 730 L 662 669 L 666 611 L 627 561 L 563 529 L 490 526 L 427 555 L 367 623 L 354 672 L 359 721 L 406 751 L 469 771 L 521 776 L 567 770 L 655 730 L 680 661 L 683 585 L 693 543 L 701 498 L 702 457 L 691 402 L 664 340 L 626 317 L 564 341 L 542 386 L 559 443 L 540 500 L 560 355 L 637 303 L 252 549 L 271 615 L 306 672" stroke="black" fill="none" stroke-width="1"/></svg>