<svg xmlns="http://www.w3.org/2000/svg" width="1024" height="1024" viewBox="0 0 1024 1024"><path d="M 851 390 L 842 387 L 837 376 L 832 365 L 827 354 L 821 343 L 814 332 L 807 321 L 800 310 L 792 299 L 783 288 L 774 277 L 764 266 L 753 255 L 742 245 L 731 235 L 720 226 L 709 217 L 698 211 L 687 203 L 676 196 L 665 191 L 654 185 L 643 180 L 632 176 L 621 172 L 610 168 L 599 165 L 588 162 L 577 159 L 566 157 L 555 155 L 544 154 L 533 152 L 522 151 L 511 150 L 500 150 L 489 150 L 478 151 L 467 152 L 456 153 L 445 155 L 434 156 L 423 159 L 412 161 L 401 164 L 390 167 L 379 170 L 368 175 L 357 179 L 346 184 L 335 189 L 324 195 L 313 201 L 302 208 L 291 215 L 280 223 L 269 232 L 258 241 L 247 252 L 236 263 L 226 274 L 216 285 L 208 296 L 200 307 L 193 318 L 187 329 L 181 340 L 175 351 L 169 362 L 164 373 L 160 384 L 155 395 L 152 406 L 148 417 L 145 428 L 143 439 L 140 450 L 138 461 L 135 472 L 134 483 L 134 494 L 133 505 L 133 516 L 133 527 L 133 538 L 134 549 L 134 560 L 135 571 L 137 582 L 139 593 L 142 604 L 143 615 L 151 616 L 146 621 L 151 620 L 147 627 L 150 638 L 158 640 L 153 644 L 159 646 L 155 649 L 163 650 L 157 656 L 162 667 L 167 678 L 172 689 L 178 700 L 184 711 L 192 722 L 199 733 L 207 744 L 216 755 L 225 766 L 236 775 L 247 785 L 258 791 L 269 794 L 266 783 L 263 772 L 260 761 L 254 750 L 249 739 L 245 728 L 242 717 L 241 706 L 241 695 L 239 684 L 238 673 L 237 662 L 238 651 L 238 640 L 240 629 L 242 618 L 244 607 L 247 596 L 252 585 L 257 574 L 262 563 L 269 552 L 279 541 L 282 530 L 290 519 L 301 508 L 310 497 L 319 488 L 323 477 L 320 466 L 317 455 L 310 446 L 311 435 L 313 424 L 319 413 L 328 403 L 339 397 L 350 394 L 361 394 L 372 397 L 383 404 L 394 411 L 396 421 L 388 427 L 378 421 L 367 417 L 356 417 L 345 418 L 334 425 L 326 436 L 324 447 L 318 456 L 324 445 L 327 434 L 336 423 L 347 418 L 358 416 L 369 418 L 380 421 L 381 420 L 388 426 L 394 433 L 399 423 L 398 430 L 395 439 L 396 447 L 399 456 L 401 467 L 396 474 L 391 484 L 385 495 L 374 500 L 365 498 L 359 487 L 354 476 L 352 465 L 353 468 L 353 474 L 358 485 L 364 496 L 360 504 L 349 509 L 344 520 L 335 523 L 324 523 L 313 528 L 306 524 L 314 514 L 322 503 L 325 492 L 323 486 L 324 497 L 319 508 L 309 518 L 304 528 L 295 533 L 284 536 L 291 535 L 302 529 L 313 528 L 324 533 L 335 533 L 345 542 L 352 537 L 346 528 L 345 527 L 353 535 L 364 534 L 375 541 L 383 550 L 387 555 L 398 561 L 409 566 L 419 573 L 427 578 L 438 581 L 449 584 L 460 581 L 471 582 L 482 584 L 493 588 L 504 592 L 515 597 L 520 607 L 528 612 L 534 622 L 545 618 L 555 623 L 553 628 L 546 636 L 535 631 L 534 622 L 532 630 L 521 630 L 510 631 L 500 625 L 492 615 L 481 613 L 470 616 L 460 618 L 451 608 L 440 604 L 429 600 L 418 596 L 407 593 L 396 591 L 385 593 L 374 594 L 363 592 L 362 581 L 361 570 L 360 559 L 359 549 L 350 541 L 357 548 L 366 553 L 377 554 L 378 554 L 376 559 L 378 562 L 369 554 L 360 556 L 361 567 L 361 578 L 362 589 L 358 599 L 349 608 L 338 609 L 327 615 L 319 626 L 312 637 L 307 648 L 305 659 L 303 670 L 302 681 L 302 692 L 305 703 L 313 714 L 324 720 L 335 723 L 346 720 L 346 712 L 349 713 L 358 710 L 352 703 L 341 699 L 333 688 L 333 677 L 333 666 L 334 655 L 338 644 L 339 633 L 343 622 L 348 611 L 353 611 L 356 622 L 351 633 L 342 642 L 337 647 L 333 658 L 333 669 L 333 680 L 335 691 L 344 701 L 355 703 L 366 703 L 377 697 L 388 688 L 399 678 L 410 669 L 421 661 L 432 655 L 438 644 L 449 638 L 458 629 L 452 621 L 442 616 L 431 613 L 420 609 L 409 605 L 398 602 L 388 595 L 392 600 L 403 603 L 414 607 L 425 611 L 436 614 L 445 621 L 436 624 L 425 623 L 436 624 L 447 621 L 458 624 L 463 622 L 465 629 L 476 630 L 487 630 L 498 631 L 504 631 L 493 631 L 482 630 L 471 630 L 460 627 L 451 637 L 440 643 L 433 653 L 440 656 L 451 654 L 462 653 L 473 652 L 484 654 L 495 658 L 505 665 L 511 676 L 517 687 L 525 698 L 536 709 L 547 717 L 558 725 L 569 732 L 580 738 L 591 744 L 602 750 L 613 756 L 624 763 L 635 772 L 636 774 L 646 785 L 656 791 L 667 793 L 674 800 L 685 801 L 696 801 L 707 800 L 701 789 L 690 782 L 679 777 L 668 772 L 657 767 L 646 762 L 653 765 L 664 770 L 675 775 L 686 780 L 697 785 L 704 786 L 701 777 L 690 773 L 679 768 L 668 762 L 657 757 L 646 751 L 635 744 L 624 737 L 613 729 L 603 720 L 592 710 L 581 701 L 573 690 L 574 679 L 570 668 L 565 657 L 554 649 L 549 639 L 552 639 L 559 628 L 560 624 L 571 630 L 576 641 L 566 637 L 556 635 L 566 638 L 573 647 L 569 658 L 561 653 L 553 645 L 557 634 L 559 625 L 555 636 L 553 645 L 561 653 L 568 664 L 564 672 L 553 672 L 542 669 L 531 658 L 520 650 L 515 639 L 511 632 L 516 641 L 522 652 L 525 650 L 531 658 L 542 669 L 553 672 L 564 672 L 575 673 L 574 674 L 573 685 L 576 696 L 587 706 L 598 716 L 609 726 L 619 734 L 630 741 L 641 748 L 652 754 L 663 760 L 674 766 L 685 770 L 696 775 L 706 781 L 712 785 L 717 796 L 712 798 L 716 799 L 714 810 L 706 820 L 695 827 L 684 834 L 673 840 L 662 845 L 651 850 L 640 855 L 629 859 L 618 863 L 607 866 L 596 870 L 585 872 L 574 875 L 563 877 L 552 879 L 541 880 L 530 882 L 519 883 L 508 883 L 497 883 L 486 883 L 475 882 L 464 881 L 453 879 L 442 877 L 431 875 L 420 873 L 409 871 L 398 868 L 387 865 L 376 861 L 365 857 L 354 853 L 343 848 L 332 843 L 321 837 L 310 831 L 299 824 L 293 814 L 287 803 L 276 798 L 269 795 L 280 800 L 291 803 L 302 804 L 313 806 L 324 806 L 331 801 L 323 792 L 312 787 L 301 781 L 290 770 L 280 759 L 272 748 L 266 737 L 261 726 L 256 715 L 248 706 L 245 704 L 255 712 L 260 723 L 265 734 L 271 745 L 278 756 L 287 767 L 298 778 L 309 786 L 320 790 L 329 798 L 339 803 L 350 801 L 361 800 L 372 796 L 383 791 L 394 785 L 405 777 L 416 767 L 426 756 L 435 745 L 443 734 L 450 723 L 457 712 L 466 701 L 477 691 L 468 688 L 457 693 L 446 702 L 436 713 L 427 724 L 417 735 L 406 745 L 395 755 L 384 762 L 373 769 L 362 773 L 351 776 L 340 777 L 329 776 L 318 773 L 307 768 L 296 761 L 285 750 L 278 739 L 272 728 L 269 717 L 266 706 L 265 695 L 265 684 L 266 673 L 267 662 L 269 651 L 272 640 L 274 629 L 277 618 L 281 607 L 285 596 L 289 585 L 295 574 L 303 563 L 314 553 L 325 549 L 336 546 L 343 544 L 332 546 L 321 550 L 310 556 L 300 567 L 293 578 L 288 589 L 283 600 L 280 611 L 276 622 L 273 633 L 271 644 L 268 655 L 266 666 L 265 677 L 265 688 L 265 699 L 267 710 L 269 721 L 274 732 L 280 743 L 289 754 L 300 765 L 311 770 L 322 775 L 333 777 L 344 778 L 355 776 L 366 772 L 377 767 L 388 760 L 399 752 L 410 742 L 420 731 L 430 720 L 440 709 L 450 699 L 461 690 L 472 687 L 480 692 L 491 698 L 501 708 L 511 719 L 522 727 L 533 734 L 544 739 L 555 744 L 566 749 L 577 753 L 588 758 L 599 765 L 610 773 L 617 783 L 619 794 L 621 805 L 632 810 L 643 808 L 654 806 L 665 805 L 673 802 L 663 805 L 652 807 L 641 809 L 630 810 L 620 803 L 619 792 L 617 781 L 608 771 L 597 763 L 586 758 L 575 752 L 564 748 L 553 743 L 542 738 L 531 733 L 520 726 L 509 717 L 499 706 L 489 696 L 478 691 L 467 700 L 458 711 L 451 722 L 443 733 L 436 744 L 427 755 L 417 766 L 406 776 L 395 784 L 384 791 L 373 796 L 362 799 L 351 801 L 340 803 L 329 806 L 318 806 L 307 805 L 296 804 L 290 808 L 295 819 L 304 827 L 315 834 L 326 840 L 337 846 L 348 850 L 359 855 L 370 859 L 381 863 L 392 866 L 403 869 L 414 872 L 425 874 L 436 876 L 447 878 L 458 880 L 469 881 L 480 882 L 491 883 L 502 883 L 513 883 L 524 882 L 535 881 L 546 880 L 557 878 L 568 876 L 579 874 L 590 871 L 601 868 L 612 865 L 623 861 L 634 857 L 645 853 L 656 848 L 667 843 L 678 837 L 689 831 L 700 824 L 711 816 L 716 805 L 721 799 L 732 799 L 743 791 L 754 782 L 765 771 L 775 760 L 785 749 L 794 738 L 802 727 L 810 716 L 817 705 L 824 694 L 830 683 L 835 672 L 840 661 L 845 650 L 848 639 L 851 628 L 855 617 L 857 606 L 859 595 L 862 584 L 864 573 L 865 562 L 867 551 L 868 540 L 868 529 L 869 518 L 868 507 L 867 496 L 866 485 L 865 474 L 863 463 L 862 452 L 860 441 L 856 430 L 854 419 L 850 408 L 845 397 L 845 396 L 849 407 L 852 407 L 856 416 L 854 420 L 856 431 L 855 440 L 860 442 L 862 453 L 863 464 L 865 475 L 866 486 L 867 497 L 868 508 L 869 519 L 868 530 L 868 541 L 867 552 L 865 563 L 864 574 L 862 585 L 859 596 L 857 607 L 855 618 L 851 629 L 848 640 L 844 651 L 840 662 L 835 673 L 829 684 L 823 695 L 816 706 L 809 717 L 802 728 L 793 739 L 784 750 L 775 761 L 764 772 L 753 783 L 742 791 L 737 802 L 748 804 L 759 804 L 770 804 L 781 804 L 792 804 L 803 804 L 814 804 L 825 804 L 836 804 L 847 804 L 858 804 L 869 804 L 880 804 L 891 804 L 902 804 L 913 804 L 924 804 L 935 804 L 946 804 L 957 804 L 968 804 L 979 804 L 990 804 L 1001 804 L 1012 804 L 1013 804 L 1002 804 L 991 804 L 980 804 L 969 804 L 958 804 L 947 804 L 936 804 L 925 804 L 914 804 L 903 804 L 892 804 L 881 804 L 870 804 L 859 804 L 848 804 L 837 804 L 826 804 L 815 804 L 804 804 L 793 804 L 782 804 L 771 804 L 760 804 L 749 804 L 738 803 L 727 799 L 717 796 L 712 785 L 704 785 L 705 794 L 702 801 L 691 801 L 680 801 L 670 795 L 659 792 L 648 788 L 639 777 L 628 766 L 617 759 L 606 752 L 595 746 L 584 740 L 573 734 L 562 728 L 551 720 L 540 712 L 529 702 L 520 691 L 513 680 L 508 669 L 499 658 L 488 656 L 477 653 L 466 652 L 455 653 L 444 656 L 433 655 L 422 660 L 411 668 L 400 677 L 389 687 L 378 696 L 367 703 L 361 711 L 357 706 L 358 709 L 350 716 L 340 722 L 331 725 L 323 729 L 333 723 L 344 721 L 354 714 L 364 708 L 373 700 L 384 691 L 395 682 L 406 672 L 417 664 L 428 657 L 435 648 L 445 640 L 456 633 L 465 629 L 476 630 L 487 630 L 498 631 L 509 631 L 520 630 L 531 630 L 533 622 L 528 611 L 517 607 L 506 605 L 495 600 L 484 597 L 473 594 L 462 592 L 459 581 L 460 588 L 452 588 L 453 589 L 459 591 L 449 584 L 438 581 L 427 578 L 416 578 L 405 575 L 394 571 L 397 572 L 408 576 L 419 576 L 412 567 L 401 563 L 390 557 L 383 548 L 373 540 L 362 533 L 352 535 L 344 526 L 346 515 L 354 506 L 365 502 L 376 499 L 386 493 L 391 482 L 398 474 L 401 465 L 399 454 L 392 451 L 398 450 L 400 461 L 402 472 L 393 478 L 387 489 L 380 497 L 369 501 L 358 504 L 348 511 L 344 522 L 333 523 L 322 523 L 311 528 L 300 530 L 289 535 L 279 541 L 269 552 L 262 563 L 257 574 L 252 585 L 247 596 L 244 607 L 242 618 L 240 629 L 238 640 L 238 651 L 237 662 L 238 673 L 239 684 L 241 695 L 241 706 L 242 717 L 245 728 L 249 739 L 254 750 L 260 761 L 263 772 L 266 783 L 269 794 L 258 799 L 247 804 L 236 804 L 225 804 L 214 804 L 203 804 L 192 804 L 181 804 L 170 804 L 159 804 L 148 804 L 137 804 L 126 804 L 115 804 L 104 804 L 93 804 L 82 804 L 71 804 L 60 804 L 49 804 L 38 804 L 27 804 L 16 804 L 5 805" stroke="black" fill="none" stroke-width="1"/></svg>