<svg xmlns="http://www.w3.org/2000/svg" width="1024" height="1024" viewBox="0 0 1024 1024"><path d="M 482 153 L 476 154 L 470 154 L 464 154 L 458 155 L 452 156 L 446 157 L 440 157 L 434 158 L 428 160 L 422 161 L 416 163 L 410 164 L 404 165 L 398 167 L 392 168 L 386 170 L 380 172 L 374 174 L 368 176 L 362 178 L 356 181 L 350 184 L 344 186 L 338 189 L 332 192 L 326 195 L 320 199 L 314 202 L 308 206 L 302 209 L 296 213 L 290 217 L 284 222 L 278 226 L 272 231 L 266 236 L 260 241 L 254 247 L 248 252 L 242 258 L 236 264 L 231 270 L 225 276 L 220 282 L 215 288 L 211 294 L 206 300 L 202 306 L 198 312 L 194 318 L 190 324 L 187 330 L 183 336 L 180 342 L 176 348 L 173 354 L 169 360 L 167 366 L 164 372 L 161 378 L 159 384 L 156 390 L 154 396 L 152 402 L 150 408 L 148 414 L 146 420 L 144 426 L 143 432 L 141 438 L 139 444 L 138 450 L 137 456 L 136 462 L 134 468 L 133 474 L 133 480 L 132 486 L 131 492 L 131 498 L 131 504 L 131 510 L 131 516 L 130 522 L 130 528 L 130 534 L 130 540 L 131 546 L 131 552 L 131 558 L 131 564 L 132 570 L 133 576 L 134 582 L 135 588 L 136 594 L 137 600 L 138 606 L 139 612 L 141 618 L 143 624 L 145 630 L 146 636 L 148 642 L 151 648 L 154 654 L 155 660 L 158 666 L 160 672 L 163 678 L 165 684 L 168 690 L 172 696 L 175 702 L 178 708 L 180 714 L 185 713 L 191 707 L 185 721 L 190 726 L 193 732 L 196 738 L 201 744 L 206 749 L 210 755 L 214 760 L 219 764 L 222 770 L 228 775 L 234 776 L 240 778 L 246 780 L 252 785 L 256 783 L 255 777 L 254 771 L 252 765 L 251 759 L 251 753 L 250 747 L 250 741 L 249 735 L 248 729 L 252 724 L 258 730 L 264 736 L 268 742 L 273 748 L 277 754 L 281 760 L 286 766 L 292 772 L 298 777 L 304 782 L 310 786 L 316 789 L 320 795 L 323 801 L 327 805 L 333 805 L 339 804 L 345 803 L 351 802 L 357 801 L 363 800 L 369 799 L 375 796 L 381 794 L 387 791 L 393 787 L 399 783 L 405 778 L 411 773 L 417 767 L 423 761 L 428 755 L 433 749 L 438 743 L 442 737 L 446 731 L 450 725 L 453 719 L 458 713 L 462 707 L 465 701 L 471 696 L 465 694 L 459 695 L 453 697 L 447 703 L 441 709 L 436 715 L 431 721 L 425 727 L 420 733 L 414 739 L 408 745 L 402 750 L 396 755 L 390 760 L 384 764 L 378 767 L 372 771 L 366 773 L 360 775 L 354 777 L 348 778 L 342 780 L 336 780 L 330 780 L 324 783 L 322 789 L 324 776 L 318 774 L 312 771 L 306 768 L 300 764 L 294 760 L 289 754 L 284 748 L 280 742 L 282 739 L 277 736 L 272 731 L 266 727 L 260 723 L 254 723 L 252 720 L 257 714 L 263 708 L 264 702 L 262 697 L 256 698 L 250 704 L 244 710 L 241 708 L 239 702 L 238 696 L 237 690 L 236 684 L 235 678 L 235 672 L 235 666 L 235 660 L 235 654 L 236 648 L 236 642 L 237 636 L 238 630 L 238 624 L 240 618 L 241 612 L 243 606 L 245 600 L 247 594 L 249 588 L 252 582 L 255 576 L 258 570 L 262 564 L 266 558 L 270 552 L 276 546 L 281 540 L 287 535 L 289 530 L 291 525 L 290 520 L 296 515 L 301 509 L 307 503 L 310 497 L 316 491 L 321 493 L 322 499 L 321 505 L 318 511 L 312 516 L 309 522 L 307 528 L 304 531 L 298 532 L 292 533 L 313 530 L 319 530 L 324 535 L 330 535 L 336 541 L 342 543 L 346 541 L 342 535 L 340 529 L 336 523 L 330 523 L 324 524 L 341 526 L 345 520 L 347 514 L 351 508 L 357 506 L 363 505 L 369 501 L 375 499 L 381 497 L 386 492 L 389 486 L 391 480 L 392 474 L 394 468 L 400 471 L 394 463 L 394 457 L 394 451 L 393 445 L 393 439 L 392 433 L 389 427 L 385 421 L 381 417 L 380 411 L 377 405 L 373 400 L 367 398 L 361 397 L 355 397 L 349 398 L 343 399 L 337 400 L 331 403 L 325 407 L 320 413 L 315 419 L 313 425 L 311 431 L 310 437 L 309 443 L 308 449 L 310 455 L 315 457 L 321 451 L 325 445 L 326 439 L 329 433 L 333 427 L 339 423 L 345 421 L 351 420 L 357 419 L 363 419 L 369 419 L 375 420 L 315 459 L 316 465 L 317 471 L 318 477 L 319 483 L 368 500 L 365 494 L 361 489 L 358 483 L 356 477 L 354 471 L 354 465 L 349 501 L 346 495 L 343 489 L 342 483 L 344 477 L 353 543 L 359 545 L 365 548 L 369 554 L 365 559 L 362 565 L 362 571 L 362 577 L 362 583 L 362 589 L 363 595 L 357 601 L 351 599 L 348 593 L 345 587 L 342 581 L 340 575 L 337 569 L 335 563 L 332 557 L 328 554 L 322 554 L 316 556 L 310 558 L 304 563 L 299 569 L 296 575 L 292 581 L 288 587 L 285 593 L 282 599 L 280 605 L 277 611 L 275 617 L 273 623 L 271 629 L 268 635 L 267 641 L 266 647 L 265 653 L 264 659 L 263 665 L 262 671 L 263 677 L 263 683 L 264 689 L 264 695 L 333 549 L 356 603 L 353 607 L 348 613 L 345 619 L 344 625 L 343 631 L 340 637 L 338 643 L 334 649 L 331 655 L 330 661 L 325 665 L 322 670 L 320 676 L 319 682 L 319 688 L 319 694 L 322 700 L 326 706 L 332 710 L 338 714 L 340 720 L 335 724 L 329 724 L 323 720 L 317 717 L 311 712 L 308 706 L 305 700 L 303 694 L 303 688 L 302 682 L 303 676 L 303 670 L 304 664 L 303 658 L 297 661 L 294 667 L 291 673 L 290 679 L 289 685 L 288 691 L 288 697 L 288 703 L 289 709 L 291 715 L 296 721 L 301 727 L 307 729 L 313 731 L 319 731 L 325 731 L 330 726 L 305 652 L 307 646 L 310 640 L 314 634 L 318 628 L 323 622 L 328 617 L 334 615 L 340 614 L 342 717 L 348 716 L 353 712 L 353 707 L 347 703 L 341 699 L 340 696 L 336 691 L 334 685 L 333 679 L 333 673 L 333 667 L 357 708 L 363 707 L 369 703 L 375 700 L 381 695 L 387 690 L 393 685 L 399 680 L 405 674 L 411 669 L 417 665 L 423 661 L 429 658 L 435 655 L 441 653 L 447 649 L 453 643 L 459 637 L 453 631 L 448 626 L 442 620 L 436 614 L 430 613 L 424 611 L 418 609 L 412 607 L 406 605 L 400 603 L 394 601 L 390 595 L 394 592 L 400 592 L 406 593 L 412 594 L 418 596 L 424 598 L 430 601 L 436 603 L 442 605 L 447 609 L 451 615 L 455 621 L 460 627 L 465 631 L 471 625 L 477 619 L 483 614 L 489 615 L 495 618 L 501 624 L 507 630 L 513 632 L 515 627 L 512 621 L 509 615 L 506 609 L 503 603 L 498 599 L 493 596 L 490 590 L 485 586 L 482 591 L 480 597 L 474 597 L 468 596 L 462 595 L 458 589 L 452 587 L 446 586 L 440 584 L 434 582 L 428 580 L 422 578 L 416 576 L 410 574 L 404 571 L 398 568 L 392 566 L 387 562 L 381 558 L 375 557 L 459 587 L 465 582 L 471 582 L 477 584 L 483 585 L 486 598 L 492 599 L 522 631 L 528 633 L 534 637 L 540 641 L 546 646 L 551 651 L 556 656 L 561 662 L 567 667 L 571 672 L 570 678 L 571 684 L 573 690 L 572 695 L 573 701 L 575 707 L 577 713 L 581 719 L 587 725 L 593 730 L 599 734 L 605 739 L 608 745 L 610 750 L 616 752 L 622 756 L 628 759 L 634 763 L 636 768 L 638 774 L 642 780 L 644 786 L 641 788 L 635 787 L 629 786 L 623 785 L 617 791 L 617 796 L 618 802 L 621 808 L 627 811 L 633 811 L 639 811 L 645 810 L 651 810 L 657 808 L 661 802 L 656 796 L 650 792 L 663 803 L 669 803 L 675 803 L 681 803 L 687 803 L 693 802 L 699 798 L 705 800 L 707 805 L 707 811 L 704 817 L 702 823 L 697 828 L 691 831 L 685 835 L 679 838 L 673 841 L 667 845 L 661 847 L 655 850 L 649 853 L 643 855 L 637 858 L 631 860 L 625 862 L 619 864 L 613 866 L 607 868 L 601 870 L 595 872 L 589 874 L 583 875 L 577 877 L 571 878 L 565 879 L 559 880 L 553 881 L 547 882 L 541 883 L 535 884 L 529 884 L 523 885 L 517 885 L 511 885 L 505 885 L 499 885 L 493 885 L 487 885 L 481 885 L 475 884 L 469 884 L 463 883 L 457 882 L 451 882 L 445 881 L 439 880 L 433 879 L 427 878 L 421 877 L 415 876 L 409 874 L 403 873 L 397 871 L 391 869 L 385 867 L 379 865 L 373 864 L 367 862 L 361 860 L 355 858 L 349 855 L 343 853 L 337 850 L 331 847 L 325 844 L 319 841 L 313 838 L 307 834 L 301 830 L 299 824 L 296 818 L 294 812 L 298 807 L 304 807 L 310 807 L 316 807 L 322 806 L 289 809 L 283 806 L 277 803 L 271 801 L 265 798 L 259 796 L 254 796 L 248 802 L 242 807 L 236 807 L 230 807 L 224 807 L 218 807 L 212 807 L 206 807 L 200 807 L 194 807 L 188 807 L 182 807 L 176 807 L 170 807 L 164 807 L 158 807 L 152 807 L 146 807 L 140 807 L 134 807 L 128 807 L 122 807 L 116 807 L 110 807 L 104 807 L 98 807 L 92 807 L 86 807 L 80 807 L 74 807 L 68 807 L 62 807 L 56 807 L 50 807 L 44 807 L 38 807 L 32 807 L 26 807 L 20 807 L 14 807 L 8 808 L 254 788 L 712 800 L 718 801 L 724 801 L 730 802 L 736 799 L 742 793 L 748 789 L 754 784 L 760 778 L 766 772 L 771 766 L 777 760 L 782 754 L 787 748 L 792 742 L 797 736 L 801 730 L 805 724 L 810 718 L 814 712 L 817 706 L 821 700 L 824 694 L 827 688 L 830 682 L 832 676 L 835 670 L 838 664 L 840 658 L 843 652 L 845 646 L 847 640 L 848 634 L 850 628 L 852 622 L 853 616 L 855 610 L 856 604 L 857 598 L 858 592 L 859 586 L 860 580 L 861 574 L 862 568 L 863 562 L 863 556 L 864 550 L 864 544 L 865 538 L 865 532 L 865 526 L 865 520 L 865 514 L 865 508 L 864 502 L 864 496 L 864 490 L 863 484 L 863 478 L 862 472 L 861 466 L 860 460 L 858 454 L 857 448 L 856 442 L 855 436 L 853 430 L 852 424 L 850 418 L 848 412 L 846 406 L 844 400 L 842 394 L 840 388 L 837 382 L 835 376 L 832 370 L 829 364 L 825 358 L 823 352 L 820 346 L 816 340 L 812 334 L 810 330 L 807 324 L 802 319 L 798 313 L 793 307 L 789 301 L 785 295 L 779 289 L 776 283 L 771 278 L 767 273 L 761 268 L 755 262 L 749 256 L 744 250 L 739 245 L 733 241 L 727 235 L 721 231 L 715 226 L 709 222 L 703 217 L 697 213 L 691 210 L 685 206 L 679 202 L 673 199 L 667 195 L 661 192 L 655 189 L 649 186 L 643 183 L 637 181 L 631 178 L 625 176 L 619 174 L 613 171 L 607 170 L 601 168 L 595 166 L 589 164 L 583 163 L 577 161 L 571 161 L 565 160 L 559 158 L 553 157 L 547 156 L 541 155 L 535 155 L 529 154 L 523 154 L 517 154 L 511 153 L 505 153 L 499 153 L 493 153 L 487 153 L 770 271 L 813 329 L 819 326 L 738 807 L 744 807 L 750 807 L 756 807 L 762 807 L 768 807 L 774 807 L 780 807 L 786 807 L 792 807 L 798 807 L 804 807 L 810 807 L 816 807 L 822 807 L 828 807 L 834 807 L 840 807 L 846 807 L 852 807 L 858 807 L 864 807 L 870 807 L 876 807 L 882 807 L 888 807 L 894 807 L 900 807 L 906 807 L 912 807 L 918 807 L 924 807 L 930 807 L 936 807 L 942 807 L 948 807 L 954 807 L 960 807 L 966 807 L 972 807 L 978 807 L 984 807 L 990 807 L 996 807 L 1002 807 L 1008 807 L 1014 806 L 702 793 L 702 787 L 699 781 L 696 775 L 690 774 L 688 780 L 685 786 L 691 792 L 684 782 L 684 776 L 684 770 L 678 767 L 672 765 L 666 762 L 660 759 L 654 756 L 648 752 L 642 749 L 636 745 L 630 741 L 624 737 L 618 732 L 612 727 L 606 723 L 600 717 L 595 712 L 590 707 L 584 703 L 578 697 L 688 772 L 680 780 L 674 778 L 668 775 L 662 773 L 656 770 L 650 768 L 644 765 L 638 764 L 614 786 L 611 780 L 606 775 L 602 769 L 608 763 L 612 757 L 600 770 L 595 766 L 589 764 L 591 759 L 596 753 L 598 751 L 595 746 L 589 743 L 583 740 L 577 737 L 571 733 L 565 730 L 559 726 L 553 722 L 547 717 L 541 712 L 535 708 L 529 702 L 525 696 L 520 690 L 516 684 L 514 678 L 511 672 L 507 666 L 503 661 L 499 661 L 493 657 L 490 659 L 492 665 L 493 671 L 494 677 L 495 683 L 495 689 L 489 695 L 492 700 L 497 706 L 501 712 L 505 718 L 511 724 L 517 730 L 523 733 L 529 737 L 535 740 L 541 743 L 547 745 L 553 748 L 559 751 L 565 753 L 571 756 L 577 758 L 582 760 L 583 758 L 589 752 L 592 746 L 483 695 L 477 695 L 490 655 L 486 649 L 481 643 L 486 637 L 492 637 L 498 637 L 504 637 L 479 642 L 473 642 L 467 642 L 461 638 L 464 633 L 604 749 L 595 751 L 596 766 L 602 760 L 606 754 L 606 753 L 574 673 L 388 594 L 382 594 L 376 594 L 370 594 L 449 629 L 443 629 L 437 628 L 431 628 L 425 628 L 419 626 L 413 624 L 407 622 L 401 620 L 395 618 L 389 616 L 383 614 L 377 611 L 371 609 L 365 609 L 359 607 L 243 713 L 247 717 L 274 742 L 205 743 L 211 737 L 199 729" stroke="black" fill="none" stroke-width="1"/></svg>